<svg version="1.1" xmlns="http://www.w3.org/2000/svg" xmlns:xlink="http://www.w3.org/1999/xlink" width="301" height="884"><defs/><g><text fill="#eeeeee" stroke="none" font-family="Arial" font-size="24px" font-style="normal" font-weight="normal" text-decoration="none" x="0" y="0">UNREGISTERED</text><text fill="#eeeeee" stroke="none" font-family="Arial" font-size="24px" font-style="normal" font-weight="normal" text-decoration="none" x="0" y="30">UNREGISTERED</text><text fill="#eeeeee" stroke="none" font-family="Arial" font-size="24px" font-style="normal" font-weight="normal" text-decoration="none" x="0" y="60">UNREGISTERED</text><text fill="#eeeeee" stroke="none" font-family="Arial" font-size="24px" font-style="normal" font-weight="normal" text-decoration="none" x="0" y="90">UNREGISTERED</text><text fill="#eeeeee" stroke="none" font-family="Arial" font-size="24px" font-style="normal" font-weight="normal" text-decoration="none" x="0" y="120">UNREGISTERED</text><text fill="#eeeeee" stroke="none" font-family="Arial" font-size="24px" font-style="normal" font-weight="normal" text-decoration="none" x="0" y="150">UNREGISTERED</text><text fill="#eeeeee" stroke="none" font-family="Arial" font-size="24px" font-style="normal" font-weight="normal" text-decoration="none" x="0" y="180">UNREGISTERED</text><text fill="#eeeeee" stroke="none" font-family="Arial" font-size="24px" font-style="normal" font-weight="normal" text-decoration="none" x="0" y="210">UNREGISTERED</text><text fill="#eeeeee" stroke="none" font-family="Arial" font-size="24px" font-style="normal" font-weight="normal" text-decoration="none" x="0" y="240">UNREGISTERED</text><text fill="#eeeeee" stroke="none" font-family="Arial" font-size="24px" font-style="normal" font-weight="normal" text-decoration="none" x="0" y="270">UNREGISTERED</text><text fill="#eeeeee" stroke="none" font-family="Arial" font-size="24px" font-style="normal" font-weight="normal" text-decoration="none" x="0" y="300">UNREGISTERED</text><text fill="#eeeeee" stroke="none" font-family="Arial" font-size="24px" font-style="normal" font-weight="normal" text-decoration="none" x="0" y="330">UNREGISTERED</text><text fill="#eeeeee" stroke="none" font-family="Arial" font-size="24px" font-style="normal" font-weight="normal" text-decoration="none" x="0" y="360">UNREGISTERED</text><text fill="#eeeeee" stroke="none" font-family="Arial" font-size="24px" font-style="normal" font-weight="normal" text-decoration="none" x="0" y="390">UNREGISTERED</text><text fill="#eeeeee" stroke="none" font-family="Arial" font-size="24px" font-style="normal" font-weight="normal" text-decoration="none" x="0" y="420">UNREGISTERED</text><text fill="#eeeeee" stroke="none" font-family="Arial" font-size="24px" font-style="normal" font-weight="normal" text-decoration="none" x="0" y="450">UNREGISTERED</text><text fill="#eeeeee" stroke="none" font-family="Arial" font-size="24px" font-style="normal" font-weight="normal" text-decoration="none" x="0" y="480">UNREGISTERED</text><text fill="#eeeeee" stroke="none" font-family="Arial" font-size="24px" font-style="normal" font-weight="normal" text-decoration="none" x="0" y="510">UNREGISTERED</text><text fill="#eeeeee" stroke="none" font-family="Arial" font-size="24px" font-style="normal" font-weight="normal" text-decoration="none" x="0" y="540">UNREGISTERED</text><text fill="#eeeeee" stroke="none" font-family="Arial" font-size="24px" font-style="normal" font-weight="normal" text-decoration="none" x="0" y="570">UNREGISTERED</text><text fill="#eeeeee" stroke="none" font-family="Arial" font-size="24px" font-style="normal" font-weight="normal" text-decoration="none" x="0" y="600">UNREGISTERED</text><text fill="#eeeeee" stroke="none" font-family="Arial" font-size="24px" font-style="normal" font-weight="normal" text-decoration="none" x="0" y="630">UNREGISTERED</text><text fill="#eeeeee" stroke="none" font-family="Arial" font-size="24px" font-style="normal" font-weight="normal" text-decoration="none" x="0" y="660">UNREGISTERED</text><text fill="#eeeeee" stroke="none" font-family="Arial" font-size="24px" font-style="normal" font-weight="normal" text-decoration="none" x="0" y="690">UNREGISTERED</text><text fill="#eeeeee" stroke="none" font-family="Arial" font-size="24px" font-style="normal" font-weight="normal" text-decoration="none" x="0" y="720">UNREGISTERED</text><text fill="#eeeeee" stroke="none" font-family="Arial" font-size="24px" font-style="normal" font-weight="normal" text-decoration="none" x="0" y="750">UNREGISTERED</text><text fill="#eeeeee" stroke="none" font-family="Arial" font-size="24px" font-style="normal" font-weight="normal" text-decoration="none" x="0" y="780">UNREGISTERED</text><text fill="#eeeeee" stroke="none" font-family="Arial" font-size="24px" font-style="normal" font-weight="normal" text-decoration="none" x="0" y="810">UNREGISTERED</text><text fill="#eeeeee" stroke="none" font-family="Arial" font-size="24px" font-style="normal" font-weight="normal" text-decoration="none" x="0" y="840">UNREGISTERED</text><text fill="#eeeeee" stroke="none" font-family="Arial" font-size="24px" font-style="normal" font-weight="normal" text-decoration="none" x="0" y="870">UNREGISTERED</text><text fill="#eeeeee" stroke="none" font-family="Arial" font-size="24px" font-style="normal" font-weight="normal" text-decoration="none" x="200" y="0">UNREGISTERED</text><text fill="#eeeeee" stroke="none" font-family="Arial" font-size="24px" font-style="normal" font-weight="normal" text-decoration="none" x="200" y="30">UNREGISTERED</text><text fill="#eeeeee" stroke="none" font-family="Arial" font-size="24px" font-style="normal" font-weight="normal" text-decoration="none" x="200" y="60">UNREGISTERED</text><text fill="#eeeeee" stroke="none" font-family="Arial" font-size="24px" font-style="normal" font-weight="normal" text-decoration="none" x="200" y="90">UNREGISTERED</text><text fill="#eeeeee" stroke="none" font-family="Arial" font-size="24px" font-style="normal" font-weight="normal" text-decoration="none" x="200" y="120">UNREGISTERED</text><text fill="#eeeeee" stroke="none" font-family="Arial" font-size="24px" font-style="normal" font-weight="normal" text-decoration="none" x="200" y="150">UNREGISTERED</text><text fill="#eeeeee" stroke="none" font-family="Arial" font-size="24px" font-style="normal" font-weight="normal" text-decoration="none" x="200" y="180">UNREGISTERED</text><text fill="#eeeeee" stroke="none" font-family="Arial" font-size="24px" font-style="normal" font-weight="normal" text-decoration="none" x="200" y="210">UNREGISTERED</text><text fill="#eeeeee" stroke="none" font-family="Arial" font-size="24px" font-style="normal" font-weight="normal" text-decoration="none" x="200" y="240">UNREGISTERED</text><text fill="#eeeeee" stroke="none" font-family="Arial" font-size="24px" font-style="normal" font-weight="normal" text-decoration="none" x="200" y="270">UNREGISTERED</text><text fill="#eeeeee" stroke="none" font-family="Arial" font-size="24px" font-style="normal" font-weight="normal" text-decoration="none" x="200" y="300">UNREGISTERED</text><text fill="#eeeeee" stroke="none" font-family="Arial" font-size="24px" font-style="normal" font-weight="normal" text-decoration="none" x="200" y="330">UNREGISTERED</text><text fill="#eeeeee" stroke="none" font-family="Arial" font-size="24px" font-style="normal" font-weight="normal" text-decoration="none" x="200" y="360">UNREGISTERED</text><text fill="#eeeeee" stroke="none" font-family="Arial" font-size="24px" font-style="normal" font-weight="normal" text-decoration="none" x="200" y="390">UNREGISTERED</text><text fill="#eeeeee" stroke="none" font-family="Arial" font-size="24px" font-style="normal" font-weight="normal" text-decoration="none" x="200" y="420">UNREGISTERED</text><text fill="#eeeeee" stroke="none" font-family="Arial" font-size="24px" font-style="normal" font-weight="normal" text-decoration="none" x="200" y="450">UNREGISTERED</text><text fill="#eeeeee" stroke="none" font-family="Arial" font-size="24px" font-style="normal" font-weight="normal" text-decoration="none" x="200" y="480">UNREGISTERED</text><text fill="#eeeeee" stroke="none" font-family="Arial" font-size="24px" font-style="normal" font-weight="normal" text-decoration="none" x="200" y="510">UNREGISTERED</text><text fill="#eeeeee" stroke="none" font-family="Arial" font-size="24px" font-style="normal" font-weight="normal" text-decoration="none" x="200" y="540">UNREGISTERED</text><text fill="#eeeeee" stroke="none" font-family="Arial" font-size="24px" font-style="normal" font-weight="normal" text-decoration="none" x="200" y="570">UNREGISTERED</text><text fill="#eeeeee" stroke="none" font-family="Arial" font-size="24px" font-style="normal" font-weight="normal" text-decoration="none" x="200" y="600">UNREGISTERED</text><text fill="#eeeeee" stroke="none" font-family="Arial" font-size="24px" font-style="normal" font-weight="normal" text-decoration="none" x="200" y="630">UNREGISTERED</text><text fill="#eeeeee" stroke="none" font-family="Arial" font-size="24px" font-style="normal" font-weight="normal" text-decoration="none" x="200" y="660">UNREGISTERED</text><text fill="#eeeeee" stroke="none" font-family="Arial" font-size="24px" font-style="normal" font-weight="normal" text-decoration="none" x="200" y="690">UNREGISTERED</text><text fill="#eeeeee" stroke="none" font-family="Arial" font-size="24px" font-style="normal" font-weight="normal" text-decoration="none" x="200" y="720">UNREGISTERED</text><text fill="#eeeeee" stroke="none" font-family="Arial" font-size="24px" font-style="normal" font-weight="normal" text-decoration="none" x="200" y="750">UNREGISTERED</text><text fill="#eeeeee" stroke="none" font-family="Arial" font-size="24px" font-style="normal" font-weight="normal" text-decoration="none" x="200" y="780">UNREGISTERED</text><text fill="#eeeeee" stroke="none" font-family="Arial" font-size="24px" font-style="normal" font-weight="normal" text-decoration="none" x="200" y="810">UNREGISTERED</text><text fill="#eeeeee" stroke="none" font-family="Arial" font-size="24px" font-style="normal" font-weight="normal" text-decoration="none" x="200" y="840">UNREGISTERED</text><text fill="#eeeeee" stroke="none" font-family="Arial" font-size="24px" font-style="normal" font-weight="normal" text-decoration="none" x="200" y="870">UNREGISTERED</text><g transform="translate(-350,-62) scale(1,1)"><path fill="#C0C0C0" stroke="none" d="M 377 183 L 541 183 Q 551 183 551 193 L 551 245 Q 551 255 541 255 L 377 255 Q 367 255 367 245 L 367 193 Q 367 183 377 183 Z" opacity="0.2"/></g><g transform="translate(-350,-62) scale(1,1)"><path fill="#ffffff" stroke="none" d="M 370 176 L 534 176 Q 544 176 544 186 L 544 238 Q 544 248 534 248 L 370 248 Q 360 248 360 238 L 360 186 Q 360 176 370 176 Z"/></g><g transform="translate(-350,-62) scale(1,1)"><path fill="none" stroke="#000000" d="M 370 176 L 534 176 Q 544 176 544 186 L 544 238 Q 544 248 534 248 L 370 248 Q 360 248 360 238 L 360 186 Q 360 176 370 176 Z" stroke-miterlimit="10"/></g><g transform="translate(-350,-62) scale(1,1)"><path fill="none" stroke="#000000" d="M 360 201 L 544 201" stroke-miterlimit="10"/></g><g transform="translate(-350,-62) scale(1,1)"><g><path fill="none" stroke="none"/><text fill="#000000" stroke="none" font-family="Arial" font-size="13px" font-style="normal" font-weight="bold" text-decoration="none" x="433.58544921875" y="194">Conta</text></g></g><g transform="translate(-350,-62) scale(1,1)"><g><path fill="none" stroke="none"/><text fill="#000000" stroke="none" font-family="Arial" font-size="13px" font-style="normal" font-weight="normal" text-decoration="none" x="365" y="217">entry/Saldo float</text></g></g><g transform="translate(-350,-62) scale(1,1)"><g><path fill="none" stroke="none"/><text fill="#000000" stroke="none" font-family="Arial" font-size="13px" font-style="normal" font-weight="normal" text-decoration="none" x="365" y="232">entry/Titular Pessoa</text></g></g><g transform="translate(-350,-62) scale(1,1)"><path fill="#C0C0C0" stroke="none" d="M 377 311 L 541 311 Q 551 311 551 321 L 551 429 Q 551 439 541 439 L 377 439 Q 367 439 367 429 L 367 321 Q 367 311 377 311 Z" opacity="0.2"/></g><g transform="translate(-350,-62) scale(1,1)"><path fill="#ffffff" stroke="none" d="M 370 304 L 534 304 Q 544 304 544 314 L 544 422 Q 544 432 534 432 L 370 432 Q 360 432 360 422 L 360 314 Q 360 304 370 304 Z"/></g><g transform="translate(-350,-62) scale(1,1)"><path fill="none" stroke="#000000" d="M 370 304 L 534 304 Q 544 304 544 314 L 544 422 Q 544 432 534 432 L 370 432 Q 360 432 360 422 L 360 314 Q 360 304 370 304 Z" stroke-miterlimit="10"/></g><g transform="translate(-350,-62) scale(1,1)"><path fill="none" stroke="#000000" d="M 360 329 L 544 329" stroke-miterlimit="10"/></g><g transform="translate(-350,-62) scale(1,1)"><g><path fill="none" stroke="none"/><text fill="#000000" stroke="none" font-family="Arial" font-size="13px" font-style="normal" font-weight="bold" text-decoration="none" x="436.10546875" y="322">Ativa</text></g></g><g transform="translate(-350,-62) scale(1,1)"><g><path fill="none" stroke="none"/><text fill="#000000" stroke="none" font-family="Arial" font-size="13px" font-style="normal" font-weight="normal" text-decoration="none" x="365" y="345">entry/Operações permitidas</text></g></g><g transform="translate(-350,-62) scale(1,1)"><g><path fill="none" stroke="none"/><text fill="#000000" stroke="none" font-family="Arial" font-size="13px" font-style="normal" font-weight="normal" text-decoration="none" x="365" y="360">do/exibirSaldo</text></g></g><g transform="translate(-350,-62) scale(1,1)"><g><path fill="none" stroke="none"/><text fill="#000000" stroke="none" font-family="Arial" font-size="13px" font-style="normal" font-weight="normal" text-decoration="none" x="365" y="375">do/realizarDeposito</text></g></g><g transform="translate(-350,-62) scale(1,1)"><g><path fill="none" stroke="none"/><text fill="#000000" stroke="none" font-family="Arial" font-size="13px" font-style="normal" font-weight="normal" text-decoration="none" x="365" y="390">do/realizarSaque</text></g></g><g transform="translate(-350,-62) scale(1,1)"><g><path fill="none" stroke="none"/><text fill="#000000" stroke="none" font-family="Arial" font-size="13px" font-style="normal" font-weight="normal" text-decoration="none" x="365" y="405">do/bloquearConta</text></g></g><g transform="translate(-350,-62) scale(1,1)"><g><path fill="none" stroke="none"/><text fill="#000000" stroke="none" font-family="Arial" font-size="13px" font-style="normal" font-weight="normal" text-decoration="none" x="365" y="420">do/encerrarConta</text></g></g><g transform="translate(-350,-62) scale(1,1)"><path fill="#C0C0C0" stroke="none" d="M 377 503 L 541 503 Q 551 503 551 513 L 551 565 Q 551 575 541 575 L 377 575 Q 367 575 367 565 L 367 513 Q 367 503 377 503 Z" opacity="0.2"/></g><g transform="translate(-350,-62) scale(1,1)"><path fill="#ffffff" stroke="none" d="M 370 496 L 534 496 Q 544 496 544 506 L 544 558 Q 544 568 534 568 L 370 568 Q 360 568 360 558 L 360 506 Q 360 496 370 496 Z"/></g><g transform="translate(-350,-62) scale(1,1)"><path fill="none" stroke="#000000" d="M 370 496 L 534 496 Q 544 496 544 506 L 544 558 Q 544 568 534 568 L 370 568 Q 360 568 360 558 L 360 506 Q 360 496 370 496 Z" stroke-miterlimit="10"/></g><g transform="translate(-350,-62) scale(1,1)"><path fill="none" stroke="#000000" d="M 360 521 L 544 521" stroke-miterlimit="10"/></g><g transform="translate(-350,-62) scale(1,1)"><g><path fill="none" stroke="none"/><text fill="#000000" stroke="none" font-family="Arial" font-size="13px" font-style="normal" font-weight="bold" text-decoration="none" x="431.408203125" y="514">Inativa</text></g></g><g transform="translate(-350,-62) scale(1,1)"><g><path fill="none" stroke="none"/><text fill="#000000" stroke="none" font-family="Arial" font-size="13px" font-style="normal" font-weight="normal" text-decoration="none" x="365" y="537">entry/Operações Limitadas</text></g></g><g transform="translate(-350,-62) scale(1,1)"><g><path fill="none" stroke="none"/><text fill="#000000" stroke="none" font-family="Arial" font-size="13px" font-style="normal" font-weight="normal" text-decoration="none" x="365" y="552">do/exibirSaldo</text></g></g><g transform="translate(-350,-62) scale(1,1)"><path fill="#C0C0C0" stroke="none" d="M 377 631 L 541 631 Q 551 631 551 641 L 551 693 Q 551 703 541 703 L 377 703 Q 367 703 367 693 L 367 641 Q 367 631 377 631 Z" opacity="0.2"/></g><g transform="translate(-350,-62) scale(1,1)"><path fill="#ffffff" stroke="none" d="M 370 624 L 534 624 Q 544 624 544 634 L 544 686 Q 544 696 534 696 L 370 696 Q 360 696 360 686 L 360 634 Q 360 624 370 624 Z"/></g><g transform="translate(-350,-62) scale(1,1)"><path fill="none" stroke="#000000" d="M 370 624 L 534 624 Q 544 624 544 634 L 544 686 Q 544 696 534 696 L 370 696 Q 360 696 360 686 L 360 634 Q 360 624 370 624 Z" stroke-miterlimit="10"/></g><g transform="translate(-350,-62) scale(1,1)"><path fill="none" stroke="#000000" d="M 360 649 L 544 649" stroke-miterlimit="10"/></g><g transform="translate(-350,-62) scale(1,1)"><g><path fill="none" stroke="none"/><text fill="#000000" stroke="none" font-family="Arial" font-size="13px" font-style="normal" font-weight="bold" text-decoration="none" x="418.773193359375" y="642">Bloqueada</text></g></g><g transform="translate(-350,-62) scale(1,1)"><g><path fill="none" stroke="none"/><text fill="#000000" stroke="none" font-family="Arial" font-size="13px" font-style="normal" font-weight="normal" text-decoration="none" x="365" y="665">entry/Sem operações</text></g></g><g transform="translate(-350,-62) scale(1,1)"><g><path fill="none" stroke="none"/><text fill="#000000" stroke="none" font-family="Arial" font-size="13px" font-style="normal" font-weight="normal" text-decoration="none" x="365" y="680">do/encerrarConta</text></g></g><g transform="translate(-350,-62) scale(1,1)"><path fill="#C0C0C0" stroke="none" d="M 377 767 L 541 767 Q 551 767 551 777 L 551 813 Q 551 823 541 823 L 377 823 Q 367 823 367 813 L 367 777 Q 367 767 377 767 Z" opacity="0.2"/></g><g transform="translate(-350,-62) scale(1,1)"><path fill="#ffffff" stroke="none" d="M 370 760 L 534 760 Q 544 760 544 770 L 544 806 Q 544 816 534 816 L 370 816 Q 360 816 360 806 L 360 770 Q 360 760 370 760 Z"/></g><g transform="translate(-350,-62) scale(1,1)"><path fill="none" stroke="#000000" d="M 370 760 L 534 760 Q 544 760 544 770 L 544 806 Q 544 816 534 816 L 370 816 Q 360 816 360 806 L 360 770 Q 360 760 370 760 Z" stroke-miterlimit="10"/></g><g transform="translate(-350,-62) scale(1,1)"><path fill="none" stroke="#000000" d="M 360 785 L 544 785" stroke-miterlimit="10"/></g><g transform="translate(-350,-62) scale(1,1)"><g><path fill="none" stroke="none"/><text fill="#000000" stroke="none" font-family="Arial" font-size="13px" font-style="normal" font-weight="bold" text-decoration="none" x="420.20458984375" y="778">Encerrada</text></g></g><g transform="translate(-350,-62) scale(1,1)"><g><path fill="none" stroke="none"/><text fill="#000000" stroke="none" font-family="Arial" font-size="13px" font-style="normal" font-weight="normal" text-decoration="none" x="365" y="801">entry/Encerrada</text></g></g><g transform="translate(-350,-62) scale(1,1)"><path fill="#C0C0C0" stroke="none" d="M 439 107 C 439 95.95430400000001 447.954304 87 459 87 C 470.045696 87 479 95.95430400000001 479 107 C 479 118.04569599999999 470.045696 127 459 127 C 447.954304 127 439 118.04569599999999 439 107 Z" opacity="0.2"/></g><g transform="translate(-350,-62) scale(1,1)"><path fill="#000000" stroke="none" d="M 432 100 C 432 88.95430400000001 440.954304 80 452 80 C 463.045696 80 472 88.95430400000001 472 100 C 472 111.04569599999999 463.045696 120 452 120 C 440.954304 120 432 111.04569599999999 432 100 Z"/></g><g transform="translate(-350,-62) scale(1,1)"><path fill="#C0C0C0" stroke="none" d="M 439 915 C 439 903.954304 447.954304 895 459 895 C 470.045696 895 479 903.954304 479 915 C 479 926.045696 470.045696 935 459 935 C 447.954304 935 439 926.045696 439 915 Z" opacity="0.2"/></g><g transform="translate(-350,-62) scale(1,1)"><path fill="none" stroke="#000000" d="M 432 908 C 432 896.954304 440.954304 888 452 888 C 463.045696 888 472 896.954304 472 908 C 472 919.045696 463.045696 928 452 928 C 440.954304 928 432 919.045696 432 908 Z" stroke-miterlimit="10"/></g><g transform="translate(-350,-62) scale(1,1)"><path fill="#000000" stroke="none" d="M 437 908 C 437 899.715728 443.715728 893 452 893 C 460.284272 893 467 899.715728 467 908 C 467 916.284272 460.284272 923 452 923 C 443.715728 923 437 916.284272 437 908 Z"/></g><g transform="translate(-350,-62) scale(1,1)"><path fill="none" stroke="#000000" d="M 452 121 L 452 175" stroke-miterlimit="10"/></g><g transform="translate(-350,-62) scale(1,1)"><path fill="none" stroke="#000000" d="M 447.790482243984 164.83732514237585 L 452 175 L 456.209517756016 164.83732514237585" stroke-miterlimit="10"/></g><g transform="translate(-350,-62) scale(1,1)"><path fill="none" stroke="#000000" d="M 452 249 L 452 303" stroke-miterlimit="10"/></g><g transform="translate(-350,-62) scale(1,1)"><path fill="none" stroke="#000000" d="M 447.790482243984 292.83732514237585 L 452 303 L 456.209517756016 292.83732514237585" stroke-miterlimit="10"/></g><g transform="translate(-350,-62) scale(1,1)"><path fill="none" stroke="#000000" d="M 452 433 L 452 495" stroke-miterlimit="10"/></g><g transform="translate(-350,-62) scale(1,1)"><path fill="none" stroke="#000000" d="M 447.790482243984 484.83732514237585 L 452 495 L 456.209517756016 484.83732514237585" stroke-miterlimit="10"/></g><g transform="translate(-350,-62) scale(1,1)"><path fill="none" stroke="#000000" d="M 452 569 L 452 623" stroke-miterlimit="10"/></g><g transform="translate(-350,-62) scale(1,1)"><path fill="none" stroke="#000000" d="M 447.790482243984 612.8373251423759 L 452 623 L 456.209517756016 612.8373251423759" stroke-miterlimit="10"/></g><g transform="translate(-350,-62) scale(1,1)"><path fill="none" stroke="#000000" d="M 452 697 L 452 759" stroke-miterlimit="10"/></g><g transform="translate(-350,-62) scale(1,1)"><path fill="none" stroke="#000000" d="M 447.790482243984 748.8373251423759 L 452 759 L 456.209517756016 748.8373251423759" stroke-miterlimit="10"/></g><g transform="translate(-350,-62) scale(1,1)"><path fill="none" stroke="#000000" d="M 452 817 L 452 887" stroke-miterlimit="10"/></g><g transform="translate(-350,-62) scale(1,1)"><path fill="none" stroke="#000000" d="M 447.790482243984 876.8373251423759 L 452 887 L 456.209517756016 876.8373251423759" stroke-miterlimit="10"/></g><g transform="translate(-350,-62) scale(1,1)"><path fill="#ffffff" stroke="none" d="M 542 72 L 630 72 L 640 82 L 640 128 L 542 128 L 542 72"/></g><g transform="translate(-350,-62) scale(1,1)"><path fill="none" stroke="#000000" d="M 542 72 L 630 72 L 640 82 L 640 128 L 542 128 L 542 72 L 542 72" stroke-miterlimit="10"/></g><g transform="translate(-350,-62) scale(1,1)"><path fill="none" stroke="#000000" d="M 630 72 L 630 82 L 640 82 L 630 72" stroke-miterlimit="10"/></g><g transform="translate(-350,-62) scale(1,1)"><g><path fill="none" stroke="none"/><text fill="#000000" stroke="none" font-family="Arial" font-size="13px" font-style="normal" font-weight="normal" text-decoration="none" x="547" y="87">Estado inicial</text></g></g><g transform="translate(-350,-62) scale(1,1)"><path fill="none" stroke="#000000" d="M 473 100 L 541 100" stroke-miterlimit="10" stroke-dasharray="3"/></g><g transform="translate(-350,-62) scale(1,1)"><path fill="#ffffff" stroke="none" d="M 544 880 L 629 880 L 639 890 L 639 935 L 544 935 L 544 880"/></g><g transform="translate(-350,-62) scale(1,1)"><path fill="none" stroke="#000000" d="M 544 880 L 629 880 L 639 890 L 639 935 L 544 935 L 544 880 L 544 880" stroke-miterlimit="10"/></g><g transform="translate(-350,-62) scale(1,1)"><path fill="none" stroke="#000000" d="M 629 880 L 629 890 L 639 890 L 629 880" stroke-miterlimit="10"/></g><g transform="translate(-350,-62) scale(1,1)"><g><path fill="none" stroke="none"/><text fill="#000000" stroke="none" font-family="Arial" font-size="13px" font-style="normal" font-weight="normal" text-decoration="none" x="549" y="895">Estado final</text></g></g><g transform="translate(-350,-62) scale(1,1)"><path fill="none" stroke="#000000" d="M 473 908 L 543 908" stroke-miterlimit="10" stroke-dasharray="3"/></g></g></svg>