<svg version="1.1" xmlns="http://www.w3.org/2000/svg" xmlns:xlink="http://www.w3.org/1999/xlink" width="564" height="932"><defs/><g><text fill="#eeeeee" stroke="none" font-family="Arial" font-size="24px" font-style="normal" font-weight="normal" text-decoration="none" x="0" y="0">UNREGISTERED</text><text fill="#eeeeee" stroke="none" font-family="Arial" font-size="24px" font-style="normal" font-weight="normal" text-decoration="none" x="0" y="30">UNREGISTERED</text><text fill="#eeeeee" stroke="none" font-family="Arial" font-size="24px" font-style="normal" font-weight="normal" text-decoration="none" x="0" y="60">UNREGISTERED</text><text fill="#eeeeee" stroke="none" font-family="Arial" font-size="24px" font-style="normal" font-weight="normal" text-decoration="none" x="0" y="90">UNREGISTERED</text><text fill="#eeeeee" stroke="none" font-family="Arial" font-size="24px" font-style="normal" font-weight="normal" text-decoration="none" x="0" y="120">UNREGISTERED</text><text fill="#eeeeee" stroke="none" font-family="Arial" font-size="24px" font-style="normal" font-weight="normal" text-decoration="none" x="0" y="150">UNREGISTERED</text><text fill="#eeeeee" stroke="none" font-family="Arial" font-size="24px" font-style="normal" font-weight="normal" text-decoration="none" x="0" y="180">UNREGISTERED</text><text fill="#eeeeee" stroke="none" font-family="Arial" font-size="24px" font-style="normal" font-weight="normal" text-decoration="none" x="0" y="210">UNREGISTERED</text><text fill="#eeeeee" stroke="none" font-family="Arial" font-size="24px" font-style="normal" font-weight="normal" text-decoration="none" x="0" y="240">UNREGISTERED</text><text fill="#eeeeee" stroke="none" font-family="Arial" font-size="24px" font-style="normal" font-weight="normal" text-decoration="none" x="0" y="270">UNREGISTERED</text><text fill="#eeeeee" stroke="none" font-family="Arial" font-size="24px" font-style="normal" font-weight="normal" text-decoration="none" x="0" y="300">UNREGISTERED</text><text fill="#eeeeee" stroke="none" font-family="Arial" font-size="24px" font-style="normal" font-weight="normal" text-decoration="none" x="0" y="330">UNREGISTERED</text><text fill="#eeeeee" stroke="none" font-family="Arial" font-size="24px" font-style="normal" font-weight="normal" text-decoration="none" x="0" y="360">UNREGISTERED</text><text fill="#eeeeee" stroke="none" font-family="Arial" font-size="24px" font-style="normal" font-weight="normal" text-decoration="none" x="0" y="390">UNREGISTERED</text><text fill="#eeeeee" stroke="none" font-family="Arial" font-size="24px" font-style="normal" font-weight="normal" text-decoration="none" x="0" y="420">UNREGISTERED</text><text fill="#eeeeee" stroke="none" font-family="Arial" font-size="24px" font-style="normal" font-weight="normal" text-decoration="none" x="0" y="450">UNREGISTERED</text><text fill="#eeeeee" stroke="none" font-family="Arial" font-size="24px" font-style="normal" font-weight="normal" text-decoration="none" x="0" y="480">UNREGISTERED</text><text fill="#eeeeee" stroke="none" font-family="Arial" font-size="24px" font-style="normal" font-weight="normal" text-decoration="none" x="0" y="510">UNREGISTERED</text><text fill="#eeeeee" stroke="none" font-family="Arial" font-size="24px" font-style="normal" font-weight="normal" text-decoration="none" x="0" y="540">UNREGISTERED</text><text fill="#eeeeee" stroke="none" font-family="Arial" font-size="24px" font-style="normal" font-weight="normal" text-decoration="none" x="0" y="570">UNREGISTERED</text><text fill="#eeeeee" stroke="none" font-family="Arial" font-size="24px" font-style="normal" font-weight="normal" text-decoration="none" x="0" y="600">UNREGISTERED</text><text fill="#eeeeee" stroke="none" font-family="Arial" font-size="24px" font-style="normal" font-weight="normal" text-decoration="none" x="0" y="630">UNREGISTERED</text><text fill="#eeeeee" stroke="none" font-family="Arial" font-size="24px" font-style="normal" font-weight="normal" text-decoration="none" x="0" y="660">UNREGISTERED</text><text fill="#eeeeee" stroke="none" font-family="Arial" font-size="24px" font-style="normal" font-weight="normal" text-decoration="none" x="0" y="690">UNREGISTERED</text><text fill="#eeeeee" stroke="none" font-family="Arial" font-size="24px" font-style="normal" font-weight="normal" text-decoration="none" x="0" y="720">UNREGISTERED</text><text fill="#eeeeee" stroke="none" font-family="Arial" font-size="24px" font-style="normal" font-weight="normal" text-decoration="none" x="0" y="750">UNREGISTERED</text><text fill="#eeeeee" stroke="none" font-family="Arial" font-size="24px" font-style="normal" font-weight="normal" text-decoration="none" x="0" y="780">UNREGISTERED</text><text fill="#eeeeee" stroke="none" font-family="Arial" font-size="24px" font-style="normal" font-weight="normal" text-decoration="none" x="0" y="810">UNREGISTERED</text><text fill="#eeeeee" stroke="none" font-family="Arial" font-size="24px" font-style="normal" font-weight="normal" text-decoration="none" x="0" y="840">UNREGISTERED</text><text fill="#eeeeee" stroke="none" font-family="Arial" font-size="24px" font-style="normal" font-weight="normal" text-decoration="none" x="0" y="870">UNREGISTERED</text><text fill="#eeeeee" stroke="none" font-family="Arial" font-size="24px" font-style="normal" font-weight="normal" text-decoration="none" x="0" y="900">UNREGISTERED</text><text fill="#eeeeee" stroke="none" font-family="Arial" font-size="24px" font-style="normal" font-weight="normal" text-decoration="none" x="0" y="930">UNREGISTERED</text><text fill="#eeeeee" stroke="none" font-family="Arial" font-size="24px" font-style="normal" font-weight="normal" text-decoration="none" x="200" y="0">UNREGISTERED</text><text fill="#eeeeee" stroke="none" font-family="Arial" font-size="24px" font-style="normal" font-weight="normal" text-decoration="none" x="200" y="30">UNREGISTERED</text><text fill="#eeeeee" stroke="none" font-family="Arial" font-size="24px" font-style="normal" font-weight="normal" text-decoration="none" x="200" y="60">UNREGISTERED</text><text fill="#eeeeee" stroke="none" font-family="Arial" font-size="24px" font-style="normal" font-weight="normal" text-decoration="none" x="200" y="90">UNREGISTERED</text><text fill="#eeeeee" stroke="none" font-family="Arial" font-size="24px" font-style="normal" font-weight="normal" text-decoration="none" x="200" y="120">UNREGISTERED</text><text fill="#eeeeee" stroke="none" font-family="Arial" font-size="24px" font-style="normal" font-weight="normal" text-decoration="none" x="200" y="150">UNREGISTERED</text><text fill="#eeeeee" stroke="none" font-family="Arial" font-size="24px" font-style="normal" font-weight="normal" text-decoration="none" x="200" y="180">UNREGISTERED</text><text fill="#eeeeee" stroke="none" font-family="Arial" font-size="24px" font-style="normal" font-weight="normal" text-decoration="none" x="200" y="210">UNREGISTERED</text><text fill="#eeeeee" stroke="none" font-family="Arial" font-size="24px" font-style="normal" font-weight="normal" text-decoration="none" x="200" y="240">UNREGISTERED</text><text fill="#eeeeee" stroke="none" font-family="Arial" font-size="24px" font-style="normal" font-weight="normal" text-decoration="none" x="200" y="270">UNREGISTERED</text><text fill="#eeeeee" stroke="none" font-family="Arial" font-size="24px" font-style="normal" font-weight="normal" text-decoration="none" x="200" y="300">UNREGISTERED</text><text fill="#eeeeee" stroke="none" font-family="Arial" font-size="24px" font-style="normal" font-weight="normal" text-decoration="none" x="200" y="330">UNREGISTERED</text><text fill="#eeeeee" stroke="none" font-family="Arial" font-size="24px" font-style="normal" font-weight="normal" text-decoration="none" x="200" y="360">UNREGISTERED</text><text fill="#eeeeee" stroke="none" font-family="Arial" font-size="24px" font-style="normal" font-weight="normal" text-decoration="none" x="200" y="390">UNREGISTERED</text><text fill="#eeeeee" stroke="none" font-family="Arial" font-size="24px" font-style="normal" font-weight="normal" text-decoration="none" x="200" y="420">UNREGISTERED</text><text fill="#eeeeee" stroke="none" font-family="Arial" font-size="24px" font-style="normal" font-weight="normal" text-decoration="none" x="200" y="450">UNREGISTERED</text><text fill="#eeeeee" stroke="none" font-family="Arial" font-size="24px" font-style="normal" font-weight="normal" text-decoration="none" x="200" y="480">UNREGISTERED</text><text fill="#eeeeee" stroke="none" font-family="Arial" font-size="24px" font-style="normal" font-weight="normal" text-decoration="none" x="200" y="510">UNREGISTERED</text><text fill="#eeeeee" stroke="none" font-family="Arial" font-size="24px" font-style="normal" font-weight="normal" text-decoration="none" x="200" y="540">UNREGISTERED</text><text fill="#eeeeee" stroke="none" font-family="Arial" font-size="24px" font-style="normal" font-weight="normal" text-decoration="none" x="200" y="570">UNREGISTERED</text><text fill="#eeeeee" stroke="none" font-family="Arial" font-size="24px" font-style="normal" font-weight="normal" text-decoration="none" x="200" y="600">UNREGISTERED</text><text fill="#eeeeee" stroke="none" font-family="Arial" font-size="24px" font-style="normal" font-weight="normal" text-decoration="none" x="200" y="630">UNREGISTERED</text><text fill="#eeeeee" stroke="none" font-family="Arial" font-size="24px" font-style="normal" font-weight="normal" text-decoration="none" x="200" y="660">UNREGISTERED</text><text fill="#eeeeee" stroke="none" font-family="Arial" font-size="24px" font-style="normal" font-weight="normal" text-decoration="none" x="200" y="690">UNREGISTERED</text><text fill="#eeeeee" stroke="none" font-family="Arial" font-size="24px" font-style="normal" font-weight="normal" text-decoration="none" x="200" y="720">UNREGISTERED</text><text fill="#eeeeee" stroke="none" font-family="Arial" font-size="24px" font-style="normal" font-weight="normal" text-decoration="none" x="200" y="750">UNREGISTERED</text><text fill="#eeeeee" stroke="none" font-family="Arial" font-size="24px" font-style="normal" font-weight="normal" text-decoration="none" x="200" y="780">UNREGISTERED</text><text fill="#eeeeee" stroke="none" font-family="Arial" font-size="24px" font-style="normal" font-weight="normal" text-decoration="none" x="200" y="810">UNREGISTERED</text><text fill="#eeeeee" stroke="none" font-family="Arial" font-size="24px" font-style="normal" font-weight="normal" text-decoration="none" x="200" y="840">UNREGISTERED</text><text fill="#eeeeee" stroke="none" font-family="Arial" font-size="24px" font-style="normal" font-weight="normal" text-decoration="none" x="200" y="870">UNREGISTERED</text><text fill="#eeeeee" stroke="none" font-family="Arial" font-size="24px" font-style="normal" font-weight="normal" text-decoration="none" x="200" y="900">UNREGISTERED</text><text fill="#eeeeee" stroke="none" font-family="Arial" font-size="24px" font-style="normal" font-weight="normal" text-decoration="none" x="200" y="930">UNREGISTERED</text><text fill="#eeeeee" stroke="none" font-family="Arial" font-size="24px" font-style="normal" font-weight="normal" text-decoration="none" x="400" y="0">UNREGISTERED</text><text fill="#eeeeee" stroke="none" font-family="Arial" font-size="24px" font-style="normal" font-weight="normal" text-decoration="none" x="400" y="30">UNREGISTERED</text><text fill="#eeeeee" stroke="none" font-family="Arial" font-size="24px" font-style="normal" font-weight="normal" text-decoration="none" x="400" y="60">UNREGISTERED</text><text fill="#eeeeee" stroke="none" font-family="Arial" font-size="24px" font-style="normal" font-weight="normal" text-decoration="none" x="400" y="90">UNREGISTERED</text><text fill="#eeeeee" stroke="none" font-family="Arial" font-size="24px" font-style="normal" font-weight="normal" text-decoration="none" x="400" y="120">UNREGISTERED</text><text fill="#eeeeee" stroke="none" font-family="Arial" font-size="24px" font-style="normal" font-weight="normal" text-decoration="none" x="400" y="150">UNREGISTERED</text><text fill="#eeeeee" stroke="none" font-family="Arial" font-size="24px" font-style="normal" font-weight="normal" text-decoration="none" x="400" y="180">UNREGISTERED</text><text fill="#eeeeee" stroke="none" font-family="Arial" font-size="24px" font-style="normal" font-weight="normal" text-decoration="none" x="400" y="210">UNREGISTERED</text><text fill="#eeeeee" stroke="none" font-family="Arial" font-size="24px" font-style="normal" font-weight="normal" text-decoration="none" x="400" y="240">UNREGISTERED</text><text fill="#eeeeee" stroke="none" font-family="Arial" font-size="24px" font-style="normal" font-weight="normal" text-decoration="none" x="400" y="270">UNREGISTERED</text><text fill="#eeeeee" stroke="none" font-family="Arial" font-size="24px" font-style="normal" font-weight="normal" text-decoration="none" x="400" y="300">UNREGISTERED</text><text fill="#eeeeee" stroke="none" font-family="Arial" font-size="24px" font-style="normal" font-weight="normal" text-decoration="none" x="400" y="330">UNREGISTERED</text><text fill="#eeeeee" stroke="none" font-family="Arial" font-size="24px" font-style="normal" font-weight="normal" text-decoration="none" x="400" y="360">UNREGISTERED</text><text fill="#eeeeee" stroke="none" font-family="Arial" font-size="24px" font-style="normal" font-weight="normal" text-decoration="none" x="400" y="390">UNREGISTERED</text><text fill="#eeeeee" stroke="none" font-family="Arial" font-size="24px" font-style="normal" font-weight="normal" text-decoration="none" x="400" y="420">UNREGISTERED</text><text fill="#eeeeee" stroke="none" font-family="Arial" font-size="24px" font-style="normal" font-weight="normal" text-decoration="none" x="400" y="450">UNREGISTERED</text><text fill="#eeeeee" stroke="none" font-family="Arial" font-size="24px" font-style="normal" font-weight="normal" text-decoration="none" x="400" y="480">UNREGISTERED</text><text fill="#eeeeee" stroke="none" font-family="Arial" font-size="24px" font-style="normal" font-weight="normal" text-decoration="none" x="400" y="510">UNREGISTERED</text><text fill="#eeeeee" stroke="none" font-family="Arial" font-size="24px" font-style="normal" font-weight="normal" text-decoration="none" x="400" y="540">UNREGISTERED</text><text fill="#eeeeee" stroke="none" font-family="Arial" font-size="24px" font-style="normal" font-weight="normal" text-decoration="none" x="400" y="570">UNREGISTERED</text><text fill="#eeeeee" stroke="none" font-family="Arial" font-size="24px" font-style="normal" font-weight="normal" text-decoration="none" x="400" y="600">UNREGISTERED</text><text fill="#eeeeee" stroke="none" font-family="Arial" font-size="24px" font-style="normal" font-weight="normal" text-decoration="none" x="400" y="630">UNREGISTERED</text><text fill="#eeeeee" stroke="none" font-family="Arial" font-size="24px" font-style="normal" font-weight="normal" text-decoration="none" x="400" y="660">UNREGISTERED</text><text fill="#eeeeee" stroke="none" font-family="Arial" font-size="24px" font-style="normal" font-weight="normal" text-decoration="none" x="400" y="690">UNREGISTERED</text><text fill="#eeeeee" stroke="none" font-family="Arial" font-size="24px" font-style="normal" font-weight="normal" text-decoration="none" x="400" y="720">UNREGISTERED</text><text fill="#eeeeee" stroke="none" font-family="Arial" font-size="24px" font-style="normal" font-weight="normal" text-decoration="none" x="400" y="750">UNREGISTERED</text><text fill="#eeeeee" stroke="none" font-family="Arial" font-size="24px" font-style="normal" font-weight="normal" text-decoration="none" x="400" y="780">UNREGISTERED</text><text fill="#eeeeee" stroke="none" font-family="Arial" font-size="24px" font-style="normal" font-weight="normal" text-decoration="none" x="400" y="810">UNREGISTERED</text><text fill="#eeeeee" stroke="none" font-family="Arial" font-size="24px" font-style="normal" font-weight="normal" text-decoration="none" x="400" y="840">UNREGISTERED</text><text fill="#eeeeee" stroke="none" font-family="Arial" font-size="24px" font-style="normal" font-weight="normal" text-decoration="none" x="400" y="870">UNREGISTERED</text><text fill="#eeeeee" stroke="none" font-family="Arial" font-size="24px" font-style="normal" font-weight="normal" text-decoration="none" x="400" y="900">UNREGISTERED</text><text fill="#eeeeee" stroke="none" font-family="Arial" font-size="24px" font-style="normal" font-weight="normal" text-decoration="none" x="400" y="930">UNREGISTERED</text><g transform="translate(-110,-62) scale(1,1)"><path fill="#C0C0C0" stroke="none" d="M 439 103 C 439 89.7451648 449.5213072 79 462.5 79 C 475.4786928 79 486 89.7451648 486 103 C 486 116.2548352 475.4786928 127 462.5 127 C 449.5213072 127 439 116.2548352 439 103 Z" opacity="0.2"/></g><g transform="translate(-110,-62) scale(1,1)"><path fill="#000000" stroke="none" d="M 432 96 C 432 82.7451648 442.5213072 72 455.5 72 C 468.4786928 72 479 82.7451648 479 96 C 479 109.2548352 468.4786928 120 455.5 120 C 442.5213072 120 432 109.2548352 432 96 Z"/></g><g transform="translate(-110,-62) scale(1,1)"><path fill="#ffffff" stroke="none" d="M 549 72 L 637 72 L 647 82 L 647 120 L 549 120 L 549 72"/></g><g transform="translate(-110,-62) scale(1,1)"><path fill="none" stroke="#000000" d="M 549 72 L 637 72 L 647 82 L 647 120 L 549 120 L 549 72 L 549 72" stroke-miterlimit="10"/></g><g transform="translate(-110,-62) scale(1,1)"><path fill="none" stroke="#000000" d="M 637 72 L 637 82 L 647 82 L 637 72" stroke-miterlimit="10"/></g><g transform="translate(-110,-62) scale(1,1)"><g><path fill="none" stroke="none"/><text fill="#000000" stroke="none" font-family="Arial" font-size="13px" font-style="normal" font-weight="normal" text-decoration="none" x="554" y="87">Estado inicial</text></g></g><g transform="translate(-110,-62) scale(1,1)"><path fill="none" stroke="#000000" d="M 480 96 L 548 96" stroke-miterlimit="10" stroke-dasharray="3"/></g><g transform="translate(-110,-62) scale(1,1)"><path fill="#C0C0C0" stroke="none" d="M 401 199 L 517 199 Q 527 199 527 209 L 527 269 Q 527 279 517 279 L 401 279 Q 391 279 391 269 L 391 209 Q 391 199 401 199 Z" opacity="0.2"/></g><g transform="translate(-110,-62) scale(1,1)"><path fill="#ffffff" stroke="none" d="M 394 192 L 510 192 Q 520 192 520 202 L 520 262 Q 520 272 510 272 L 394 272 Q 384 272 384 262 L 384 202 Q 384 192 394 192 Z"/></g><g transform="translate(-110,-62) scale(1,1)"><path fill="none" stroke="#000000" d="M 394 192 L 510 192 Q 520 192 520 202 L 520 262 Q 520 272 510 272 L 394 272 Q 384 272 384 262 L 384 202 Q 384 192 394 192 Z" stroke-miterlimit="10"/></g><g transform="translate(-110,-62) scale(1,1)"><path fill="none" stroke="#000000" d="M 384 217 L 520 217" stroke-miterlimit="10"/></g><g transform="translate(-110,-62) scale(1,1)"><g><path fill="none" stroke="none"/><text fill="#000000" stroke="none" font-family="Arial" font-size="13px" font-style="normal" font-weight="bold" text-decoration="none" x="419.8427734375" y="210">Transação</text></g></g><g transform="translate(-110,-62) scale(1,1)"><g><path fill="none" stroke="none"/><text fill="#000000" stroke="none" font-family="Arial" font-size="13px" font-style="normal" font-weight="normal" text-decoration="none" x="389" y="233">entry/Tipo</text></g></g><g transform="translate(-110,-62) scale(1,1)"><g><path fill="none" stroke="none"/><text fill="#000000" stroke="none" font-family="Arial" font-size="13px" font-style="normal" font-weight="normal" text-decoration="none" x="389" y="248">entry/Valor float</text></g></g><g transform="translate(-110,-62) scale(1,1)"><g><path fill="none" stroke="none"/><text fill="#000000" stroke="none" font-family="Arial" font-size="13px" font-style="normal" font-weight="normal" text-decoration="none" x="389" y="263">entry/Status</text></g></g><g transform="translate(-110,-62) scale(1,1)"><path fill="#C0C0C0" stroke="none" d="M 385 351 L 533 351 Q 543 351 543 361 L 543 413 Q 543 423 533 423 L 385 423 Q 375 423 375 413 L 375 361 Q 375 351 385 351 Z" opacity="0.2"/></g><g transform="translate(-110,-62) scale(1,1)"><path fill="#ffffff" stroke="none" d="M 378 344 L 526 344 Q 536 344 536 354 L 536 406 Q 536 416 526 416 L 378 416 Q 368 416 368 406 L 368 354 Q 368 344 378 344 Z"/></g><g transform="translate(-110,-62) scale(1,1)"><path fill="none" stroke="#000000" d="M 378 344 L 526 344 Q 536 344 536 354 L 536 406 Q 536 416 526 416 L 378 416 Q 368 416 368 406 L 368 354 Q 368 344 378 344 Z" stroke-miterlimit="10"/></g><g transform="translate(-110,-62) scale(1,1)"><path fill="none" stroke="#000000" d="M 368 369 L 536 369" stroke-miterlimit="10"/></g><g transform="translate(-110,-62) scale(1,1)"><g><path fill="none" stroke="none"/><text fill="#000000" stroke="none" font-family="Arial" font-size="13px" font-style="normal" font-weight="bold" text-decoration="none" x="394.92822265625" y="362">Criando transação</text></g></g><g transform="translate(-110,-62) scale(1,1)"><g><path fill="none" stroke="none"/><text fill="#000000" stroke="none" font-family="Arial" font-size="13px" font-style="normal" font-weight="normal" text-decoration="none" x="373" y="385">do/iniciarPagamento</text></g></g><g transform="translate(-110,-62) scale(1,1)"><g><path fill="none" stroke="none"/><text fill="#000000" stroke="none" font-family="Arial" font-size="13px" font-style="normal" font-weight="normal" text-decoration="none" x="373" y="400">do/cancelarTransacao</text></g></g><g transform="translate(-110,-62) scale(1,1)"><path fill="#C0C0C0" stroke="none" d="M 385 567 L 533 567 Q 543 567 543 577 L 543 629 Q 543 639 533 639 L 385 639 Q 375 639 375 629 L 375 577 Q 375 567 385 567 Z" opacity="0.2"/></g><g transform="translate(-110,-62) scale(1,1)"><path fill="#ffffff" stroke="none" d="M 378 560 L 526 560 Q 536 560 536 570 L 536 622 Q 536 632 526 632 L 378 632 Q 368 632 368 622 L 368 570 Q 368 560 378 560 Z"/></g><g transform="translate(-110,-62) scale(1,1)"><path fill="none" stroke="#000000" d="M 378 560 L 526 560 Q 536 560 536 570 L 536 622 Q 536 632 526 632 L 378 632 Q 368 632 368 622 L 368 570 Q 368 560 378 560 Z" stroke-miterlimit="10"/></g><g transform="translate(-110,-62) scale(1,1)"><path fill="none" stroke="#000000" d="M 368 585 L 536 585" stroke-miterlimit="10"/></g><g transform="translate(-110,-62) scale(1,1)"><g><path fill="none" stroke="none"/><text fill="#000000" stroke="none" font-family="Arial" font-size="13px" font-style="normal" font-weight="bold" text-decoration="none" x="381.207763671875" y="578">Aguardando transação</text></g></g><g transform="translate(-110,-62) scale(1,1)"><g><path fill="none" stroke="none"/><text fill="#000000" stroke="none" font-family="Arial" font-size="13px" font-style="normal" font-weight="normal" text-decoration="none" x="373" y="601">do/aguardarConfirmação</text></g></g><g transform="translate(-110,-62) scale(1,1)"><g><path fill="none" stroke="none"/><text fill="#000000" stroke="none" font-family="Arial" font-size="13px" font-style="normal" font-weight="normal" text-decoration="none" x="373" y="616">do/cancelarTransacao</text></g></g><g transform="translate(-110,-62) scale(1,1)"><path fill="#C0C0C0" stroke="none" d="M 385 799 L 533 799 Q 543 799 543 809 L 543 845 Q 543 855 533 855 L 385 855 Q 375 855 375 845 L 375 809 Q 375 799 385 799 Z" opacity="0.2"/></g><g transform="translate(-110,-62) scale(1,1)"><path fill="#ffffff" stroke="none" d="M 378 792 L 526 792 Q 536 792 536 802 L 536 838 Q 536 848 526 848 L 378 848 Q 368 848 368 838 L 368 802 Q 368 792 378 792 Z"/></g><g transform="translate(-110,-62) scale(1,1)"><path fill="none" stroke="#000000" d="M 378 792 L 526 792 Q 536 792 536 802 L 536 838 Q 536 848 526 848 L 378 848 Q 368 848 368 838 L 368 802 Q 368 792 378 792 Z" stroke-miterlimit="10"/></g><g transform="translate(-110,-62) scale(1,1)"><path fill="none" stroke="#000000" d="M 368 817 L 536 817" stroke-miterlimit="10"/></g><g transform="translate(-110,-62) scale(1,1)"><g><path fill="none" stroke="none"/><text fill="#000000" stroke="none" font-family="Arial" font-size="13px" font-style="normal" font-weight="bold" text-decoration="none" x="383.740478515625" y="810">Concluindo transação</text></g></g><g transform="translate(-110,-62) scale(1,1)"><g><path fill="none" stroke="none"/><text fill="#000000" stroke="none" font-family="Arial" font-size="13px" font-style="normal" font-weight="normal" text-decoration="none" x="373" y="833">do/exibirComprovante</text></g></g><g transform="translate(-110,-62) scale(1,1)"><path fill="#C0C0C0" stroke="none" d="M 137 799 L 277 799 Q 287 799 287 809 L 287 845 Q 287 855 277 855 L 137 855 Q 127 855 127 845 L 127 809 Q 127 799 137 799 Z" opacity="0.2"/></g><g transform="translate(-110,-62) scale(1,1)"><path fill="#ffffff" stroke="none" d="M 130 792 L 270 792 Q 280 792 280 802 L 280 838 Q 280 848 270 848 L 130 848 Q 120 848 120 838 L 120 802 Q 120 792 130 792 Z"/></g><g transform="translate(-110,-62) scale(1,1)"><path fill="none" stroke="#000000" d="M 130 792 L 270 792 Q 280 792 280 802 L 280 838 Q 280 848 270 848 L 130 848 Q 120 848 120 838 L 120 802 Q 120 792 130 792 Z" stroke-miterlimit="10"/></g><g transform="translate(-110,-62) scale(1,1)"><path fill="none" stroke="#000000" d="M 120 817 L 280 817" stroke-miterlimit="10"/></g><g transform="translate(-110,-62) scale(1,1)"><g><path fill="none" stroke="none"/><text fill="#000000" stroke="none" font-family="Arial" font-size="13px" font-style="normal" font-weight="bold" text-decoration="none" x="130.642333984375" y="810">Cancelando transação</text></g></g><g transform="translate(-110,-62) scale(1,1)"><g><path fill="none" stroke="none"/><text fill="#000000" stroke="none" font-family="Arial" font-size="13px" font-style="normal" font-weight="normal" text-decoration="none" x="125" y="833">do/exibirMotivo</text></g></g><g transform="translate(-110,-62) scale(1,1)"><path fill="#C0C0C0" stroke="none" d="M 439 965 C 439 952.8497344 449.5213072 943 462.5 943 C 475.4786928 943 486 952.8497344 486 965 C 486 977.1502656 475.4786928 987 462.5 987 C 449.5213072 987 439 977.1502656 439 965 Z" opacity="0.2"/></g><g transform="translate(-110,-62) scale(1,1)"><path fill="none" stroke="#000000" d="M 432 958 C 432 945.8497344 442.5213072 936 455.5 936 C 468.4786928 936 479 945.8497344 479 958 C 479 970.1502656 468.4786928 980 455.5 980 C 442.5213072 980 432 970.1502656 432 958 Z" stroke-miterlimit="10"/></g><g transform="translate(-110,-62) scale(1,1)"><path fill="#000000" stroke="none" d="M 437 958 C 437 948.6111584 445.2827312 941 455.5 941 C 465.7172688 941 474 948.6111584 474 958 C 474 967.3888416 465.7172688 975 455.5 975 C 445.2827312 975 437 967.3888416 437 958 Z"/></g><g transform="translate(-110,-62) scale(1,1)"><path fill="#ffffff" stroke="none" d="M 568 936 L 653 936 L 663 946 L 663 983 L 568 983 L 568 936"/></g><g transform="translate(-110,-62) scale(1,1)"><path fill="none" stroke="#000000" d="M 568 936 L 653 936 L 663 946 L 663 983 L 568 983 L 568 936 L 568 936" stroke-miterlimit="10"/></g><g transform="translate(-110,-62) scale(1,1)"><path fill="none" stroke="#000000" d="M 653 936 L 653 946 L 663 946 L 653 936" stroke-miterlimit="10"/></g><g transform="translate(-110,-62) scale(1,1)"><g><path fill="none" stroke="none"/><text fill="#000000" stroke="none" font-family="Arial" font-size="13px" font-style="normal" font-weight="normal" text-decoration="none" x="573" y="951">Estado final</text></g></g><g transform="translate(-110,-62) scale(1,1)"><path fill="none" stroke="#000000" d="M 480 958 L 567 959" stroke-miterlimit="10" stroke-dasharray="3"/></g><g transform="translate(-110,-62) scale(1,1)"><path fill="none" stroke="#000000" d="M 452 273 L 452 343" stroke-miterlimit="10"/></g><g transform="translate(-110,-62) scale(1,1)"><path fill="none" stroke="#000000" d="M 447.790482243984 332.83732514237585 L 452 343 L 456.209517756016 332.83732514237585" stroke-miterlimit="10"/></g><g transform="translate(-110,-62) scale(1,1)"><path fill="none" stroke="#000000" d="M 454 121 L 453 191" stroke-miterlimit="10"/></g><g transform="translate(-110,-62) scale(1,1)"><path fill="none" stroke="#000000" d="M 448.93607797814394 180.77823215875682 L 453 191 L 457.3542545363899 180.89849182387462" stroke-miterlimit="10"/></g><g transform="translate(-110,-62) scale(1,1)"><path fill="none" stroke="#000000" d="M 200 849 L 200 960 L 431 958" stroke-miterlimit="10"/></g><g transform="translate(-110,-62) scale(1,1)"><path fill="none" stroke="#000000" d="M 420.8741506989129 962.2973452190479 L 431 958 L 420.8012613484399 953.8786252394166" stroke-miterlimit="10"/></g><g transform="translate(-110,-62) scale(1,1)"><path fill="none" stroke="#000000" d="M 453 849 L 455 935" stroke-miterlimit="10"/></g><g transform="translate(-110,-62) scale(1,1)"><path fill="none" stroke="#000000" d="M 450.55534271416747 924.9379414824056 L 455 935 L 458.97210250362457 924.7422028826506" stroke-miterlimit="10"/></g><g transform="translate(-110,-62) scale(1,1)"><path fill="#C0C0C0" stroke="none" d="M 439 711.5 L 459.5 695 L 479 711.5 L 459.5 727 L 439 711.5" opacity="0.2"/></g><g transform="translate(-110,-62) scale(1,1)"><path fill="#ffffff" stroke="none" d="M 432 704 L 452 688 L 472 704 L 452 720 L 432 704"/></g><g transform="translate(-110,-62) scale(1,1)"><path fill="none" stroke="#000000" d="M 432 704 L 452 688 L 472 704 L 452 720 L 432 704 L 432 704" stroke-miterlimit="10"/></g><g transform="translate(-110,-62) scale(1,1)"><path fill="#C0C0C0" stroke="none" d="M 439 495.5 L 459.5 479 L 479 495.5 L 459.5 511 L 439 495.5" opacity="0.2"/></g><g transform="translate(-110,-62) scale(1,1)"><path fill="#ffffff" stroke="none" d="M 432 488 L 452 472 L 472 488 L 452 504 L 432 488"/></g><g transform="translate(-110,-62) scale(1,1)"><path fill="none" stroke="#000000" d="M 432 488 L 452 472 L 472 488 L 452 504 L 432 488 L 432 488" stroke-miterlimit="10"/></g><g transform="translate(-110,-62) scale(1,1)"><path fill="none" stroke="#000000" d="M 452 417 L 452 471" stroke-miterlimit="10"/></g><g transform="translate(-110,-62) scale(1,1)"><path fill="none" stroke="#000000" d="M 447.790482243984 460.83732514237585 L 452 471 L 456.209517756016 460.83732514237585" stroke-miterlimit="10"/></g><g transform="translate(-110,-62) scale(1,1)"><path fill="none" stroke="#000000" d="M 431 488 L 200 488 L 200 791" stroke-miterlimit="10"/></g><g transform="translate(-110,-62) scale(1,1)"><path fill="none" stroke="#000000" d="M 195.790482243984 780.8373251423759 L 200 791 L 204.209517756016 780.8373251423759" stroke-miterlimit="10"/></g><g transform="translate(-110,-62) scale(1,1)"><g><path fill="none" stroke="none"/><text fill="#000000" stroke="none" font-family="Arial" font-size="13px" font-style="normal" font-weight="normal" text-decoration="none" x="214.5" y="475"> [Se necessário] / Cancelar transação</text></g></g><g transform="translate(-110,-62) scale(1,1)"><path fill="none" stroke="#000000" d="M 452 505 L 452 559" stroke-miterlimit="10"/></g><g transform="translate(-110,-62) scale(1,1)"><path fill="none" stroke="#000000" d="M 447.790482243984 548.8373251423759 L 452 559 L 456.209517756016 548.8373251423759" stroke-miterlimit="10"/></g><g transform="translate(-110,-62) scale(1,1)"><path fill="none" stroke="#000000" d="M 452 633 L 452 687" stroke-miterlimit="10"/></g><g transform="translate(-110,-62) scale(1,1)"><path fill="none" stroke="#000000" d="M 447.790482243984 676.8373251423759 L 452 687 L 456.209517756016 676.8373251423759" stroke-miterlimit="10"/></g><g transform="translate(-110,-62) scale(1,1)"><path fill="none" stroke="#000000" d="M 431 704 L 200 704 L 200 791" stroke-miterlimit="10"/></g><g transform="translate(-110,-62) scale(1,1)"><path fill="none" stroke="#000000" d="M 195.790482243984 780.8373251423759 L 200 791 L 204.209517756016 780.8373251423759" stroke-miterlimit="10"/></g><g transform="translate(-110,-62) scale(1,1)"><g><path fill="none" stroke="none"/><text fill="#000000" stroke="none" font-family="Arial" font-size="13px" font-style="normal" font-weight="normal" text-decoration="none" x="214.5" y="691"> [Se necessário] / Cancelar transação</text></g></g><g transform="translate(-110,-62) scale(1,1)"><path fill="none" stroke="#000000" d="M 452 721 L 452 791" stroke-miterlimit="10"/></g><g transform="translate(-110,-62) scale(1,1)"><path fill="none" stroke="#000000" d="M 447.790482243984 780.8373251423759 L 452 791 L 456.209517756016 780.8373251423759" stroke-miterlimit="10"/></g></g></svg>