<svg version="1.1" xmlns="http://www.w3.org/2000/svg" xmlns:xlink="http://www.w3.org/1999/xlink" width="380" height="884"><defs/><g><text fill="#eeeeee" stroke="none" font-family="Arial" font-size="24px" font-style="normal" font-weight="normal" text-decoration="none" x="0" y="0">UNREGISTERED</text><text fill="#eeeeee" stroke="none" font-family="Arial" font-size="24px" font-style="normal" font-weight="normal" text-decoration="none" x="0" y="30">UNREGISTERED</text><text fill="#eeeeee" stroke="none" font-family="Arial" font-size="24px" font-style="normal" font-weight="normal" text-decoration="none" x="0" y="60">UNREGISTERED</text><text fill="#eeeeee" stroke="none" font-family="Arial" font-size="24px" font-style="normal" font-weight="normal" text-decoration="none" x="0" y="90">UNREGISTERED</text><text fill="#eeeeee" stroke="none" font-family="Arial" font-size="24px" font-style="normal" font-weight="normal" text-decoration="none" x="0" y="120">UNREGISTERED</text><text fill="#eeeeee" stroke="none" font-family="Arial" font-size="24px" font-style="normal" font-weight="normal" text-decoration="none" x="0" y="150">UNREGISTERED</text><text fill="#eeeeee" stroke="none" font-family="Arial" font-size="24px" font-style="normal" font-weight="normal" text-decoration="none" x="0" y="180">UNREGISTERED</text><text fill="#eeeeee" stroke="none" font-family="Arial" font-size="24px" font-style="normal" font-weight="normal" text-decoration="none" x="0" y="210">UNREGISTERED</text><text fill="#eeeeee" stroke="none" font-family="Arial" font-size="24px" font-style="normal" font-weight="normal" text-decoration="none" x="0" y="240">UNREGISTERED</text><text fill="#eeeeee" stroke="none" font-family="Arial" font-size="24px" font-style="normal" font-weight="normal" text-decoration="none" x="0" y="270">UNREGISTERED</text><text fill="#eeeeee" stroke="none" font-family="Arial" font-size="24px" font-style="normal" font-weight="normal" text-decoration="none" x="0" y="300">UNREGISTERED</text><text fill="#eeeeee" stroke="none" font-family="Arial" font-size="24px" font-style="normal" font-weight="normal" text-decoration="none" x="0" y="330">UNREGISTERED</text><text fill="#eeeeee" stroke="none" font-family="Arial" font-size="24px" font-style="normal" font-weight="normal" text-decoration="none" x="0" y="360">UNREGISTERED</text><text fill="#eeeeee" stroke="none" font-family="Arial" font-size="24px" font-style="normal" font-weight="normal" text-decoration="none" x="0" y="390">UNREGISTERED</text><text fill="#eeeeee" stroke="none" font-family="Arial" font-size="24px" font-style="normal" font-weight="normal" text-decoration="none" x="0" y="420">UNREGISTERED</text><text fill="#eeeeee" stroke="none" font-family="Arial" font-size="24px" font-style="normal" font-weight="normal" text-decoration="none" x="0" y="450">UNREGISTERED</text><text fill="#eeeeee" stroke="none" font-family="Arial" font-size="24px" font-style="normal" font-weight="normal" text-decoration="none" x="0" y="480">UNREGISTERED</text><text fill="#eeeeee" stroke="none" font-family="Arial" font-size="24px" font-style="normal" font-weight="normal" text-decoration="none" x="0" y="510">UNREGISTERED</text><text fill="#eeeeee" stroke="none" font-family="Arial" font-size="24px" font-style="normal" font-weight="normal" text-decoration="none" x="0" y="540">UNREGISTERED</text><text fill="#eeeeee" stroke="none" font-family="Arial" font-size="24px" font-style="normal" font-weight="normal" text-decoration="none" x="0" y="570">UNREGISTERED</text><text fill="#eeeeee" stroke="none" font-family="Arial" font-size="24px" font-style="normal" font-weight="normal" text-decoration="none" x="0" y="600">UNREGISTERED</text><text fill="#eeeeee" stroke="none" font-family="Arial" font-size="24px" font-style="normal" font-weight="normal" text-decoration="none" x="0" y="630">UNREGISTERED</text><text fill="#eeeeee" stroke="none" font-family="Arial" font-size="24px" font-style="normal" font-weight="normal" text-decoration="none" x="0" y="660">UNREGISTERED</text><text fill="#eeeeee" stroke="none" font-family="Arial" font-size="24px" font-style="normal" font-weight="normal" text-decoration="none" x="0" y="690">UNREGISTERED</text><text fill="#eeeeee" stroke="none" font-family="Arial" font-size="24px" font-style="normal" font-weight="normal" text-decoration="none" x="0" y="720">UNREGISTERED</text><text fill="#eeeeee" stroke="none" font-family="Arial" font-size="24px" font-style="normal" font-weight="normal" text-decoration="none" x="0" y="750">UNREGISTERED</text><text fill="#eeeeee" stroke="none" font-family="Arial" font-size="24px" font-style="normal" font-weight="normal" text-decoration="none" x="0" y="780">UNREGISTERED</text><text fill="#eeeeee" stroke="none" font-family="Arial" font-size="24px" font-style="normal" font-weight="normal" text-decoration="none" x="0" y="810">UNREGISTERED</text><text fill="#eeeeee" stroke="none" font-family="Arial" font-size="24px" font-style="normal" font-weight="normal" text-decoration="none" x="0" y="840">UNREGISTERED</text><text fill="#eeeeee" stroke="none" font-family="Arial" font-size="24px" font-style="normal" font-weight="normal" text-decoration="none" x="0" y="870">UNREGISTERED</text><text fill="#eeeeee" stroke="none" font-family="Arial" font-size="24px" font-style="normal" font-weight="normal" text-decoration="none" x="200" y="0">UNREGISTERED</text><text fill="#eeeeee" stroke="none" font-family="Arial" font-size="24px" font-style="normal" font-weight="normal" text-decoration="none" x="200" y="30">UNREGISTERED</text><text fill="#eeeeee" stroke="none" font-family="Arial" font-size="24px" font-style="normal" font-weight="normal" text-decoration="none" x="200" y="60">UNREGISTERED</text><text fill="#eeeeee" stroke="none" font-family="Arial" font-size="24px" font-style="normal" font-weight="normal" text-decoration="none" x="200" y="90">UNREGISTERED</text><text fill="#eeeeee" stroke="none" font-family="Arial" font-size="24px" font-style="normal" font-weight="normal" text-decoration="none" x="200" y="120">UNREGISTERED</text><text fill="#eeeeee" stroke="none" font-family="Arial" font-size="24px" font-style="normal" font-weight="normal" text-decoration="none" x="200" y="150">UNREGISTERED</text><text fill="#eeeeee" stroke="none" font-family="Arial" font-size="24px" font-style="normal" font-weight="normal" text-decoration="none" x="200" y="180">UNREGISTERED</text><text fill="#eeeeee" stroke="none" font-family="Arial" font-size="24px" font-style="normal" font-weight="normal" text-decoration="none" x="200" y="210">UNREGISTERED</text><text fill="#eeeeee" stroke="none" font-family="Arial" font-size="24px" font-style="normal" font-weight="normal" text-decoration="none" x="200" y="240">UNREGISTERED</text><text fill="#eeeeee" stroke="none" font-family="Arial" font-size="24px" font-style="normal" font-weight="normal" text-decoration="none" x="200" y="270">UNREGISTERED</text><text fill="#eeeeee" stroke="none" font-family="Arial" font-size="24px" font-style="normal" font-weight="normal" text-decoration="none" x="200" y="300">UNREGISTERED</text><text fill="#eeeeee" stroke="none" font-family="Arial" font-size="24px" font-style="normal" font-weight="normal" text-decoration="none" x="200" y="330">UNREGISTERED</text><text fill="#eeeeee" stroke="none" font-family="Arial" font-size="24px" font-style="normal" font-weight="normal" text-decoration="none" x="200" y="360">UNREGISTERED</text><text fill="#eeeeee" stroke="none" font-family="Arial" font-size="24px" font-style="normal" font-weight="normal" text-decoration="none" x="200" y="390">UNREGISTERED</text><text fill="#eeeeee" stroke="none" font-family="Arial" font-size="24px" font-style="normal" font-weight="normal" text-decoration="none" x="200" y="420">UNREGISTERED</text><text fill="#eeeeee" stroke="none" font-family="Arial" font-size="24px" font-style="normal" font-weight="normal" text-decoration="none" x="200" y="450">UNREGISTERED</text><text fill="#eeeeee" stroke="none" font-family="Arial" font-size="24px" font-style="normal" font-weight="normal" text-decoration="none" x="200" y="480">UNREGISTERED</text><text fill="#eeeeee" stroke="none" font-family="Arial" font-size="24px" font-style="normal" font-weight="normal" text-decoration="none" x="200" y="510">UNREGISTERED</text><text fill="#eeeeee" stroke="none" font-family="Arial" font-size="24px" font-style="normal" font-weight="normal" text-decoration="none" x="200" y="540">UNREGISTERED</text><text fill="#eeeeee" stroke="none" font-family="Arial" font-size="24px" font-style="normal" font-weight="normal" text-decoration="none" x="200" y="570">UNREGISTERED</text><text fill="#eeeeee" stroke="none" font-family="Arial" font-size="24px" font-style="normal" font-weight="normal" text-decoration="none" x="200" y="600">UNREGISTERED</text><text fill="#eeeeee" stroke="none" font-family="Arial" font-size="24px" font-style="normal" font-weight="normal" text-decoration="none" x="200" y="630">UNREGISTERED</text><text fill="#eeeeee" stroke="none" font-family="Arial" font-size="24px" font-style="normal" font-weight="normal" text-decoration="none" x="200" y="660">UNREGISTERED</text><text fill="#eeeeee" stroke="none" font-family="Arial" font-size="24px" font-style="normal" font-weight="normal" text-decoration="none" x="200" y="690">UNREGISTERED</text><text fill="#eeeeee" stroke="none" font-family="Arial" font-size="24px" font-style="normal" font-weight="normal" text-decoration="none" x="200" y="720">UNREGISTERED</text><text fill="#eeeeee" stroke="none" font-family="Arial" font-size="24px" font-style="normal" font-weight="normal" text-decoration="none" x="200" y="750">UNREGISTERED</text><text fill="#eeeeee" stroke="none" font-family="Arial" font-size="24px" font-style="normal" font-weight="normal" text-decoration="none" x="200" y="780">UNREGISTERED</text><text fill="#eeeeee" stroke="none" font-family="Arial" font-size="24px" font-style="normal" font-weight="normal" text-decoration="none" x="200" y="810">UNREGISTERED</text><text fill="#eeeeee" stroke="none" font-family="Arial" font-size="24px" font-style="normal" font-weight="normal" text-decoration="none" x="200" y="840">UNREGISTERED</text><text fill="#eeeeee" stroke="none" font-family="Arial" font-size="24px" font-style="normal" font-weight="normal" text-decoration="none" x="200" y="870">UNREGISTERED</text><g transform="translate(-390,-118) scale(1,1)"><path fill="#C0C0C0" stroke="none" d="M 417 279 L 581 279 Q 591 279 591 289 L 591 357 Q 591 367 581 367 L 417 367 Q 407 367 407 357 L 407 289 Q 407 279 417 279 Z" opacity="0.2"/></g><g transform="translate(-390,-118) scale(1,1)"><path fill="#ffffff" stroke="none" d="M 410 272 L 574 272 Q 584 272 584 282 L 584 350 Q 584 360 574 360 L 410 360 Q 400 360 400 350 L 400 282 Q 400 272 410 272 Z"/></g><g transform="translate(-390,-118) scale(1,1)"><path fill="none" stroke="#000000" d="M 410 272 L 574 272 Q 584 272 584 282 L 584 350 Q 584 360 574 360 L 410 360 Q 400 360 400 350 L 400 282 Q 400 272 410 272 Z" stroke-miterlimit="10"/></g><g transform="translate(-390,-118) scale(1,1)"><path fill="none" stroke="#000000" d="M 400 297 L 584 297" stroke-miterlimit="10"/></g><g transform="translate(-390,-118) scale(1,1)"><g><path fill="none" stroke="none"/><text fill="#000000" stroke="none" font-family="Arial" font-size="13px" font-style="normal" font-weight="bold" text-decoration="none" x="460.207763671875" y="290">Chave PIX</text></g></g><g transform="translate(-390,-118) scale(1,1)"><g><path fill="none" stroke="none"/><text fill="#000000" stroke="none" font-family="Arial" font-size="13px" font-style="normal" font-weight="normal" text-decoration="none" x="405" y="313">entry/Valor String</text></g></g><g transform="translate(-390,-118) scale(1,1)"><g><path fill="none" stroke="none"/><text fill="#000000" stroke="none" font-family="Arial" font-size="13px" font-style="normal" font-weight="normal" text-decoration="none" x="405" y="328">entry/Tipo Tipo Chave PIX</text></g></g><g transform="translate(-390,-118) scale(1,1)"><g><path fill="none" stroke="none"/><text fill="#000000" stroke="none" font-family="Arial" font-size="13px" font-style="normal" font-weight="normal" text-decoration="none" x="405" y="343">entry/Status</text></g></g><g transform="translate(-390,-118) scale(1,1)"><path fill="#C0C0C0" stroke="none" d="M 425 439 L 573 439 Q 583 439 583 449 L 583 517 Q 583 527 573 527 L 425 527 Q 415 527 415 517 L 415 449 Q 415 439 425 439 Z" opacity="0.2"/></g><g transform="translate(-390,-118) scale(1,1)"><path fill="#ffffff" stroke="none" d="M 418 432 L 566 432 Q 576 432 576 442 L 576 510 Q 576 520 566 520 L 418 520 Q 408 520 408 510 L 408 442 Q 408 432 418 432 Z"/></g><g transform="translate(-390,-118) scale(1,1)"><path fill="none" stroke="#000000" d="M 418 432 L 566 432 Q 576 432 576 442 L 576 510 Q 576 520 566 520 L 418 520 Q 408 520 408 510 L 408 442 Q 408 432 418 432 Z" stroke-miterlimit="10"/></g><g transform="translate(-390,-118) scale(1,1)"><path fill="none" stroke="#000000" d="M 408 457 L 576 457" stroke-miterlimit="10"/></g><g transform="translate(-390,-118) scale(1,1)"><g><path fill="none" stroke="none"/><text fill="#000000" stroke="none" font-family="Arial" font-size="13px" font-style="normal" font-weight="bold" text-decoration="none" x="476.10546875" y="450">Ativa</text></g></g><g transform="translate(-390,-118) scale(1,1)"><g><path fill="none" stroke="none"/><text fill="#000000" stroke="none" font-family="Arial" font-size="13px" font-style="normal" font-weight="normal" text-decoration="none" x="413" y="473">do/exibirQRCode</text></g></g><g transform="translate(-390,-118) scale(1,1)"><g><path fill="none" stroke="none"/><text fill="#000000" stroke="none" font-family="Arial" font-size="13px" font-style="normal" font-weight="normal" text-decoration="none" x="413" y="488">do/realizarPagamento</text></g></g><g transform="translate(-390,-118) scale(1,1)"><g><path fill="none" stroke="none"/><text fill="#000000" stroke="none" font-family="Arial" font-size="13px" font-style="normal" font-weight="normal" text-decoration="none" x="413" y="503">do/cancelarChavePIX</text></g></g><g transform="translate(-390,-118) scale(1,1)"><path fill="#C0C0C0" stroke="none" d="M 417 599 L 581 599 Q 591 599 591 609 L 591 677 Q 591 687 581 687 L 417 687 Q 407 687 407 677 L 407 609 Q 407 599 417 599 Z" opacity="0.2"/></g><g transform="translate(-390,-118) scale(1,1)"><path fill="#ffffff" stroke="none" d="M 410 592 L 574 592 Q 584 592 584 602 L 584 670 Q 584 680 574 680 L 410 680 Q 400 680 400 670 L 400 602 Q 400 592 410 592 Z"/></g><g transform="translate(-390,-118) scale(1,1)"><path fill="none" stroke="#000000" d="M 410 592 L 574 592 Q 584 592 584 602 L 584 670 Q 584 680 574 680 L 410 680 Q 400 680 400 670 L 400 602 Q 400 592 410 592 Z" stroke-miterlimit="10"/></g><g transform="translate(-390,-118) scale(1,1)"><path fill="none" stroke="#000000" d="M 400 617 L 584 617" stroke-miterlimit="10"/></g><g transform="translate(-390,-118) scale(1,1)"><g><path fill="none" stroke="none"/><text fill="#000000" stroke="none" font-family="Arial" font-size="13px" font-style="normal" font-weight="bold" text-decoration="none" x="458.773193359375" y="610">Bloqueada</text></g></g><g transform="translate(-390,-118) scale(1,1)"><g><path fill="none" stroke="none"/><text fill="#000000" stroke="none" font-family="Arial" font-size="13px" font-style="normal" font-weight="normal" text-decoration="none" x="405" y="633">do/exibirMotivo</text></g></g><g transform="translate(-390,-118) scale(1,1)"><g><path fill="none" stroke="none"/><text fill="#000000" stroke="none" font-family="Arial" font-size="13px" font-style="normal" font-weight="normal" text-decoration="none" x="405" y="648">do/desbloquearChavePIX</text></g></g><g transform="translate(-390,-118) scale(1,1)"><path fill="#C0C0C0" stroke="none" d="M 441 791 L 557 791 Q 567 791 567 801 L 567 845 Q 567 855 557 855 L 441 855 Q 431 855 431 845 L 431 801 Q 431 791 441 791 Z" opacity="0.2"/></g><g transform="translate(-390,-118) scale(1,1)"><path fill="#ffffff" stroke="none" d="M 434 784 L 550 784 Q 560 784 560 794 L 560 838 Q 560 848 550 848 L 434 848 Q 424 848 424 838 L 424 794 Q 424 784 434 784 Z"/></g><g transform="translate(-390,-118) scale(1,1)"><path fill="none" stroke="#000000" d="M 434 784 L 550 784 Q 560 784 560 794 L 560 838 Q 560 848 550 848 L 434 848 Q 424 848 424 838 L 424 794 Q 424 784 434 784 Z" stroke-miterlimit="10"/></g><g transform="translate(-390,-118) scale(1,1)"><path fill="none" stroke="#000000" d="M 424 809 L 560 809" stroke-miterlimit="10"/></g><g transform="translate(-390,-118) scale(1,1)"><g><path fill="none" stroke="none"/><text fill="#000000" stroke="none" font-family="Arial" font-size="13px" font-style="normal" font-weight="bold" text-decoration="none" x="464.543212890625" y="802">Expirada</text></g></g><g transform="translate(-390,-118) scale(1,1)"><g><path fill="none" stroke="none"/><text fill="#000000" stroke="none" font-family="Arial" font-size="13px" font-style="normal" font-weight="normal" text-decoration="none" x="429" y="825">do/exibirMotivo</text></g></g><g transform="translate(-390,-118) scale(1,1)"><path fill="#C0C0C0" stroke="none" d="M 463 163 C 463 147.5360256 477.3268864 135 495 135 C 512.6731136 135 527 147.5360256 527 163 C 527 178.4639744 512.6731136 191 495 191 C 477.3268864 191 463 178.4639744 463 163 Z" opacity="0.2"/></g><g transform="translate(-390,-118) scale(1,1)"><path fill="#000000" stroke="none" d="M 456 156 C 456 140.5360256 470.3268864 128 488 128 C 505.6731136 128 520 140.5360256 520 156 C 520 171.4639744 505.6731136 184 488 184 C 470.3268864 184 456 171.4639744 456 156 Z"/></g><g transform="translate(-390,-118) scale(1,1)"><path fill="#C0C0C0" stroke="none" d="M 471 971 C 471 955.5360256 483.5360256 943 499 943 C 514.4639744 943 527 955.5360256 527 971 C 527 986.4639744 514.4639744 999 499 999 C 483.5360256 999 471 986.4639744 471 971 Z" opacity="0.2"/></g><g transform="translate(-390,-118) scale(1,1)"><path fill="none" stroke="#000000" d="M 464 964 C 464 948.5360256 476.5360256 936 492 936 C 507.4639744 936 520 948.5360256 520 964 C 520 979.4639744 507.4639744 992 492 992 C 476.5360256 992 464 979.4639744 464 964 Z" stroke-miterlimit="10"/></g><g transform="translate(-390,-118) scale(1,1)"><path fill="#000000" stroke="none" d="M 469 964 C 469 951.2974496 479.2974496 941 492 941 C 504.7025504 941 515 951.2974496 515 964 C 515 976.7025504 504.7025504 987 492 987 C 479.2974496 987 469 976.7025504 469 964 Z"/></g><g transform="translate(-390,-118) scale(1,1)"><path fill="#ffffff" stroke="none" d="M 656 128 L 744 128 L 754 138 L 754 176 L 656 176 L 656 128"/></g><g transform="translate(-390,-118) scale(1,1)"><path fill="none" stroke="#000000" d="M 656 128 L 744 128 L 754 138 L 754 176 L 656 176 L 656 128 L 656 128" stroke-miterlimit="10"/></g><g transform="translate(-390,-118) scale(1,1)"><path fill="none" stroke="#000000" d="M 744 128 L 744 138 L 754 138 L 744 128" stroke-miterlimit="10"/></g><g transform="translate(-390,-118) scale(1,1)"><g><path fill="none" stroke="none"/><text fill="#000000" stroke="none" font-family="Arial" font-size="13px" font-style="normal" font-weight="normal" text-decoration="none" x="661" y="143">Estado inicial</text></g></g><g transform="translate(-390,-118) scale(1,1)"><path fill="none" stroke="#000000" d="M 521 155 L 655 153" stroke-miterlimit="10" stroke-dasharray="3"/></g><g transform="translate(-390,-118) scale(1,1)"><path fill="#ffffff" stroke="none" d="M 656 936 L 749 936 L 759 946 L 759 991 L 656 991 L 656 936"/></g><g transform="translate(-390,-118) scale(1,1)"><path fill="none" stroke="#000000" d="M 656 936 L 749 936 L 759 946 L 759 991 L 656 991 L 656 936 L 656 936" stroke-miterlimit="10"/></g><g transform="translate(-390,-118) scale(1,1)"><path fill="none" stroke="#000000" d="M 749 936 L 749 946 L 759 946 L 749 936" stroke-miterlimit="10"/></g><g transform="translate(-390,-118) scale(1,1)"><g><path fill="none" stroke="none"/><text fill="#000000" stroke="none" font-family="Arial" font-size="13px" font-style="normal" font-weight="normal" text-decoration="none" x="661" y="951">Estado final</text></g></g><g transform="translate(-390,-118) scale(1,1)"><path fill="none" stroke="#000000" d="M 521 964 L 655 964" stroke-miterlimit="10" stroke-dasharray="3"/></g><g transform="translate(-390,-118) scale(1,1)"><path fill="none" stroke="#000000" d="M 489 185 L 491 271" stroke-miterlimit="10"/></g><g transform="translate(-390,-118) scale(1,1)"><path fill="none" stroke="#000000" d="M 486.55534271416747 260.9379414824055 L 491 271 L 494.97210250362457 260.7422028826507" stroke-miterlimit="10"/></g><g transform="translate(-390,-118) scale(1,1)"><path fill="none" stroke="#000000" d="M 492 361 L 492 431" stroke-miterlimit="10"/></g><g transform="translate(-390,-118) scale(1,1)"><path fill="none" stroke="#000000" d="M 487.790482243984 420.83732514237585 L 492 431 L 496.209517756016 420.83732514237585" stroke-miterlimit="10"/></g><g transform="translate(-390,-118) scale(1,1)"><path fill="none" stroke="#000000" d="M 492 521 L 492 591" stroke-miterlimit="10"/></g><g transform="translate(-390,-118) scale(1,1)"><path fill="none" stroke="#000000" d="M 487.790482243984 580.8373251423759 L 492 591 L 496.209517756016 580.8373251423759" stroke-miterlimit="10"/></g><g transform="translate(-390,-118) scale(1,1)"><path fill="none" stroke="#000000" d="M 492 681 L 492 783" stroke-miterlimit="10"/></g><g transform="translate(-390,-118) scale(1,1)"><path fill="none" stroke="#000000" d="M 487.790482243984 772.8373251423759 L 492 783 L 496.209517756016 772.8373251423759" stroke-miterlimit="10"/></g><g transform="translate(-390,-118) scale(1,1)"><path fill="none" stroke="#000000" d="M 492 849 L 492 935" stroke-miterlimit="10"/></g><g transform="translate(-390,-118) scale(1,1)"><path fill="none" stroke="#000000" d="M 487.790482243984 924.8373251423759 L 492 935 L 496.209517756016 924.8373251423759" stroke-miterlimit="10"/></g></g></svg>