<svg version="1.1" xmlns="http://www.w3.org/2000/svg" xmlns:xlink="http://www.w3.org/1999/xlink" width="700" height="1019"><defs/><g><text fill="#eeeeee" stroke="none" font-family="Arial" font-size="24px" font-style="normal" font-weight="normal" text-decoration="none" x="0" y="0">UNREGISTERED</text><text fill="#eeeeee" stroke="none" font-family="Arial" font-size="24px" font-style="normal" font-weight="normal" text-decoration="none" x="0" y="30">UNREGISTERED</text><text fill="#eeeeee" stroke="none" font-family="Arial" font-size="24px" font-style="normal" font-weight="normal" text-decoration="none" x="0" y="60">UNREGISTERED</text><text fill="#eeeeee" stroke="none" font-family="Arial" font-size="24px" font-style="normal" font-weight="normal" text-decoration="none" x="0" y="90">UNREGISTERED</text><text fill="#eeeeee" stroke="none" font-family="Arial" font-size="24px" font-style="normal" font-weight="normal" text-decoration="none" x="0" y="120">UNREGISTERED</text><text fill="#eeeeee" stroke="none" font-family="Arial" font-size="24px" font-style="normal" font-weight="normal" text-decoration="none" x="0" y="150">UNREGISTERED</text><text fill="#eeeeee" stroke="none" font-family="Arial" font-size="24px" font-style="normal" font-weight="normal" text-decoration="none" x="0" y="180">UNREGISTERED</text><text fill="#eeeeee" stroke="none" font-family="Arial" font-size="24px" font-style="normal" font-weight="normal" text-decoration="none" x="0" y="210">UNREGISTERED</text><text fill="#eeeeee" stroke="none" font-family="Arial" font-size="24px" font-style="normal" font-weight="normal" text-decoration="none" x="0" y="240">UNREGISTERED</text><text fill="#eeeeee" stroke="none" font-family="Arial" font-size="24px" font-style="normal" font-weight="normal" text-decoration="none" x="0" y="270">UNREGISTERED</text><text fill="#eeeeee" stroke="none" font-family="Arial" font-size="24px" font-style="normal" font-weight="normal" text-decoration="none" x="0" y="300">UNREGISTERED</text><text fill="#eeeeee" stroke="none" font-family="Arial" font-size="24px" font-style="normal" font-weight="normal" text-decoration="none" x="0" y="330">UNREGISTERED</text><text fill="#eeeeee" stroke="none" font-family="Arial" font-size="24px" font-style="normal" font-weight="normal" text-decoration="none" x="0" y="360">UNREGISTERED</text><text fill="#eeeeee" stroke="none" font-family="Arial" font-size="24px" font-style="normal" font-weight="normal" text-decoration="none" x="0" y="390">UNREGISTERED</text><text fill="#eeeeee" stroke="none" font-family="Arial" font-size="24px" font-style="normal" font-weight="normal" text-decoration="none" x="0" y="420">UNREGISTERED</text><text fill="#eeeeee" stroke="none" font-family="Arial" font-size="24px" font-style="normal" font-weight="normal" text-decoration="none" x="0" y="450">UNREGISTERED</text><text fill="#eeeeee" stroke="none" font-family="Arial" font-size="24px" font-style="normal" font-weight="normal" text-decoration="none" x="0" y="480">UNREGISTERED</text><text fill="#eeeeee" stroke="none" font-family="Arial" font-size="24px" font-style="normal" font-weight="normal" text-decoration="none" x="0" y="510">UNREGISTERED</text><text fill="#eeeeee" stroke="none" font-family="Arial" font-size="24px" font-style="normal" font-weight="normal" text-decoration="none" x="0" y="540">UNREGISTERED</text><text fill="#eeeeee" stroke="none" font-family="Arial" font-size="24px" font-style="normal" font-weight="normal" text-decoration="none" x="0" y="570">UNREGISTERED</text><text fill="#eeeeee" stroke="none" font-family="Arial" font-size="24px" font-style="normal" font-weight="normal" text-decoration="none" x="0" y="600">UNREGISTERED</text><text fill="#eeeeee" stroke="none" font-family="Arial" font-size="24px" font-style="normal" font-weight="normal" text-decoration="none" x="0" y="630">UNREGISTERED</text><text fill="#eeeeee" stroke="none" font-family="Arial" font-size="24px" font-style="normal" font-weight="normal" text-decoration="none" x="0" y="660">UNREGISTERED</text><text fill="#eeeeee" stroke="none" font-family="Arial" font-size="24px" font-style="normal" font-weight="normal" text-decoration="none" x="0" y="690">UNREGISTERED</text><text fill="#eeeeee" stroke="none" font-family="Arial" font-size="24px" font-style="normal" font-weight="normal" text-decoration="none" x="0" y="720">UNREGISTERED</text><text fill="#eeeeee" stroke="none" font-family="Arial" font-size="24px" font-style="normal" font-weight="normal" text-decoration="none" x="0" y="750">UNREGISTERED</text><text fill="#eeeeee" stroke="none" font-family="Arial" font-size="24px" font-style="normal" font-weight="normal" text-decoration="none" x="0" y="780">UNREGISTERED</text><text fill="#eeeeee" stroke="none" font-family="Arial" font-size="24px" font-style="normal" font-weight="normal" text-decoration="none" x="0" y="810">UNREGISTERED</text><text fill="#eeeeee" stroke="none" font-family="Arial" font-size="24px" font-style="normal" font-weight="normal" text-decoration="none" x="0" y="840">UNREGISTERED</text><text fill="#eeeeee" stroke="none" font-family="Arial" font-size="24px" font-style="normal" font-weight="normal" text-decoration="none" x="0" y="870">UNREGISTERED</text><text fill="#eeeeee" stroke="none" font-family="Arial" font-size="24px" font-style="normal" font-weight="normal" text-decoration="none" x="0" y="900">UNREGISTERED</text><text fill="#eeeeee" stroke="none" font-family="Arial" font-size="24px" font-style="normal" font-weight="normal" text-decoration="none" x="0" y="930">UNREGISTERED</text><text fill="#eeeeee" stroke="none" font-family="Arial" font-size="24px" font-style="normal" font-weight="normal" text-decoration="none" x="0" y="960">UNREGISTERED</text><text fill="#eeeeee" stroke="none" font-family="Arial" font-size="24px" font-style="normal" font-weight="normal" text-decoration="none" x="0" y="990">UNREGISTERED</text><text fill="#eeeeee" stroke="none" font-family="Arial" font-size="24px" font-style="normal" font-weight="normal" text-decoration="none" x="200" y="0">UNREGISTERED</text><text fill="#eeeeee" stroke="none" font-family="Arial" font-size="24px" font-style="normal" font-weight="normal" text-decoration="none" x="200" y="30">UNREGISTERED</text><text fill="#eeeeee" stroke="none" font-family="Arial" font-size="24px" font-style="normal" font-weight="normal" text-decoration="none" x="200" y="60">UNREGISTERED</text><text fill="#eeeeee" stroke="none" font-family="Arial" font-size="24px" font-style="normal" font-weight="normal" text-decoration="none" x="200" y="90">UNREGISTERED</text><text fill="#eeeeee" stroke="none" font-family="Arial" font-size="24px" font-style="normal" font-weight="normal" text-decoration="none" x="200" y="120">UNREGISTERED</text><text fill="#eeeeee" stroke="none" font-family="Arial" font-size="24px" font-style="normal" font-weight="normal" text-decoration="none" x="200" y="150">UNREGISTERED</text><text fill="#eeeeee" stroke="none" font-family="Arial" font-size="24px" font-style="normal" font-weight="normal" text-decoration="none" x="200" y="180">UNREGISTERED</text><text fill="#eeeeee" stroke="none" font-family="Arial" font-size="24px" font-style="normal" font-weight="normal" text-decoration="none" x="200" y="210">UNREGISTERED</text><text fill="#eeeeee" stroke="none" font-family="Arial" font-size="24px" font-style="normal" font-weight="normal" text-decoration="none" x="200" y="240">UNREGISTERED</text><text fill="#eeeeee" stroke="none" font-family="Arial" font-size="24px" font-style="normal" font-weight="normal" text-decoration="none" x="200" y="270">UNREGISTERED</text><text fill="#eeeeee" stroke="none" font-family="Arial" font-size="24px" font-style="normal" font-weight="normal" text-decoration="none" x="200" y="300">UNREGISTERED</text><text fill="#eeeeee" stroke="none" font-family="Arial" font-size="24px" font-style="normal" font-weight="normal" text-decoration="none" x="200" y="330">UNREGISTERED</text><text fill="#eeeeee" stroke="none" font-family="Arial" font-size="24px" font-style="normal" font-weight="normal" text-decoration="none" x="200" y="360">UNREGISTERED</text><text fill="#eeeeee" stroke="none" font-family="Arial" font-size="24px" font-style="normal" font-weight="normal" text-decoration="none" x="200" y="390">UNREGISTERED</text><text fill="#eeeeee" stroke="none" font-family="Arial" font-size="24px" font-style="normal" font-weight="normal" text-decoration="none" x="200" y="420">UNREGISTERED</text><text fill="#eeeeee" stroke="none" font-family="Arial" font-size="24px" font-style="normal" font-weight="normal" text-decoration="none" x="200" y="450">UNREGISTERED</text><text fill="#eeeeee" stroke="none" font-family="Arial" font-size="24px" font-style="normal" font-weight="normal" text-decoration="none" x="200" y="480">UNREGISTERED</text><text fill="#eeeeee" stroke="none" font-family="Arial" font-size="24px" font-style="normal" font-weight="normal" text-decoration="none" x="200" y="510">UNREGISTERED</text><text fill="#eeeeee" stroke="none" font-family="Arial" font-size="24px" font-style="normal" font-weight="normal" text-decoration="none" x="200" y="540">UNREGISTERED</text><text fill="#eeeeee" stroke="none" font-family="Arial" font-size="24px" font-style="normal" font-weight="normal" text-decoration="none" x="200" y="570">UNREGISTERED</text><text fill="#eeeeee" stroke="none" font-family="Arial" font-size="24px" font-style="normal" font-weight="normal" text-decoration="none" x="200" y="600">UNREGISTERED</text><text fill="#eeeeee" stroke="none" font-family="Arial" font-size="24px" font-style="normal" font-weight="normal" text-decoration="none" x="200" y="630">UNREGISTERED</text><text fill="#eeeeee" stroke="none" font-family="Arial" font-size="24px" font-style="normal" font-weight="normal" text-decoration="none" x="200" y="660">UNREGISTERED</text><text fill="#eeeeee" stroke="none" font-family="Arial" font-size="24px" font-style="normal" font-weight="normal" text-decoration="none" x="200" y="690">UNREGISTERED</text><text fill="#eeeeee" stroke="none" font-family="Arial" font-size="24px" font-style="normal" font-weight="normal" text-decoration="none" x="200" y="720">UNREGISTERED</text><text fill="#eeeeee" stroke="none" font-family="Arial" font-size="24px" font-style="normal" font-weight="normal" text-decoration="none" x="200" y="750">UNREGISTERED</text><text fill="#eeeeee" stroke="none" font-family="Arial" font-size="24px" font-style="normal" font-weight="normal" text-decoration="none" x="200" y="780">UNREGISTERED</text><text fill="#eeeeee" stroke="none" font-family="Arial" font-size="24px" font-style="normal" font-weight="normal" text-decoration="none" x="200" y="810">UNREGISTERED</text><text fill="#eeeeee" stroke="none" font-family="Arial" font-size="24px" font-style="normal" font-weight="normal" text-decoration="none" x="200" y="840">UNREGISTERED</text><text fill="#eeeeee" stroke="none" font-family="Arial" font-size="24px" font-style="normal" font-weight="normal" text-decoration="none" x="200" y="870">UNREGISTERED</text><text fill="#eeeeee" stroke="none" font-family="Arial" font-size="24px" font-style="normal" font-weight="normal" text-decoration="none" x="200" y="900">UNREGISTERED</text><text fill="#eeeeee" stroke="none" font-family="Arial" font-size="24px" font-style="normal" font-weight="normal" text-decoration="none" x="200" y="930">UNREGISTERED</text><text fill="#eeeeee" stroke="none" font-family="Arial" font-size="24px" font-style="normal" font-weight="normal" text-decoration="none" x="200" y="960">UNREGISTERED</text><text fill="#eeeeee" stroke="none" font-family="Arial" font-size="24px" font-style="normal" font-weight="normal" text-decoration="none" x="200" y="990">UNREGISTERED</text><text fill="#eeeeee" stroke="none" font-family="Arial" font-size="24px" font-style="normal" font-weight="normal" text-decoration="none" x="400" y="0">UNREGISTERED</text><text fill="#eeeeee" stroke="none" font-family="Arial" font-size="24px" font-style="normal" font-weight="normal" text-decoration="none" x="400" y="30">UNREGISTERED</text><text fill="#eeeeee" stroke="none" font-family="Arial" font-size="24px" font-style="normal" font-weight="normal" text-decoration="none" x="400" y="60">UNREGISTERED</text><text fill="#eeeeee" stroke="none" font-family="Arial" font-size="24px" font-style="normal" font-weight="normal" text-decoration="none" x="400" y="90">UNREGISTERED</text><text fill="#eeeeee" stroke="none" font-family="Arial" font-size="24px" font-style="normal" font-weight="normal" text-decoration="none" x="400" y="120">UNREGISTERED</text><text fill="#eeeeee" stroke="none" font-family="Arial" font-size="24px" font-style="normal" font-weight="normal" text-decoration="none" x="400" y="150">UNREGISTERED</text><text fill="#eeeeee" stroke="none" font-family="Arial" font-size="24px" font-style="normal" font-weight="normal" text-decoration="none" x="400" y="180">UNREGISTERED</text><text fill="#eeeeee" stroke="none" font-family="Arial" font-size="24px" font-style="normal" font-weight="normal" text-decoration="none" x="400" y="210">UNREGISTERED</text><text fill="#eeeeee" stroke="none" font-family="Arial" font-size="24px" font-style="normal" font-weight="normal" text-decoration="none" x="400" y="240">UNREGISTERED</text><text fill="#eeeeee" stroke="none" font-family="Arial" font-size="24px" font-style="normal" font-weight="normal" text-decoration="none" x="400" y="270">UNREGISTERED</text><text fill="#eeeeee" stroke="none" font-family="Arial" font-size="24px" font-style="normal" font-weight="normal" text-decoration="none" x="400" y="300">UNREGISTERED</text><text fill="#eeeeee" stroke="none" font-family="Arial" font-size="24px" font-style="normal" font-weight="normal" text-decoration="none" x="400" y="330">UNREGISTERED</text><text fill="#eeeeee" stroke="none" font-family="Arial" font-size="24px" font-style="normal" font-weight="normal" text-decoration="none" x="400" y="360">UNREGISTERED</text><text fill="#eeeeee" stroke="none" font-family="Arial" font-size="24px" font-style="normal" font-weight="normal" text-decoration="none" x="400" y="390">UNREGISTERED</text><text fill="#eeeeee" stroke="none" font-family="Arial" font-size="24px" font-style="normal" font-weight="normal" text-decoration="none" x="400" y="420">UNREGISTERED</text><text fill="#eeeeee" stroke="none" font-family="Arial" font-size="24px" font-style="normal" font-weight="normal" text-decoration="none" x="400" y="450">UNREGISTERED</text><text fill="#eeeeee" stroke="none" font-family="Arial" font-size="24px" font-style="normal" font-weight="normal" text-decoration="none" x="400" y="480">UNREGISTERED</text><text fill="#eeeeee" stroke="none" font-family="Arial" font-size="24px" font-style="normal" font-weight="normal" text-decoration="none" x="400" y="510">UNREGISTERED</text><text fill="#eeeeee" stroke="none" font-family="Arial" font-size="24px" font-style="normal" font-weight="normal" text-decoration="none" x="400" y="540">UNREGISTERED</text><text fill="#eeeeee" stroke="none" font-family="Arial" font-size="24px" font-style="normal" font-weight="normal" text-decoration="none" x="400" y="570">UNREGISTERED</text><text fill="#eeeeee" stroke="none" font-family="Arial" font-size="24px" font-style="normal" font-weight="normal" text-decoration="none" x="400" y="600">UNREGISTERED</text><text fill="#eeeeee" stroke="none" font-family="Arial" font-size="24px" font-style="normal" font-weight="normal" text-decoration="none" x="400" y="630">UNREGISTERED</text><text fill="#eeeeee" stroke="none" font-family="Arial" font-size="24px" font-style="normal" font-weight="normal" text-decoration="none" x="400" y="660">UNREGISTERED</text><text fill="#eeeeee" stroke="none" font-family="Arial" font-size="24px" font-style="normal" font-weight="normal" text-decoration="none" x="400" y="690">UNREGISTERED</text><text fill="#eeeeee" stroke="none" font-family="Arial" font-size="24px" font-style="normal" font-weight="normal" text-decoration="none" x="400" y="720">UNREGISTERED</text><text fill="#eeeeee" stroke="none" font-family="Arial" font-size="24px" font-style="normal" font-weight="normal" text-decoration="none" x="400" y="750">UNREGISTERED</text><text fill="#eeeeee" stroke="none" font-family="Arial" font-size="24px" font-style="normal" font-weight="normal" text-decoration="none" x="400" y="780">UNREGISTERED</text><text fill="#eeeeee" stroke="none" font-family="Arial" font-size="24px" font-style="normal" font-weight="normal" text-decoration="none" x="400" y="810">UNREGISTERED</text><text fill="#eeeeee" stroke="none" font-family="Arial" font-size="24px" font-style="normal" font-weight="normal" text-decoration="none" x="400" y="840">UNREGISTERED</text><text fill="#eeeeee" stroke="none" font-family="Arial" font-size="24px" font-style="normal" font-weight="normal" text-decoration="none" x="400" y="870">UNREGISTERED</text><text fill="#eeeeee" stroke="none" font-family="Arial" font-size="24px" font-style="normal" font-weight="normal" text-decoration="none" x="400" y="900">UNREGISTERED</text><text fill="#eeeeee" stroke="none" font-family="Arial" font-size="24px" font-style="normal" font-weight="normal" text-decoration="none" x="400" y="930">UNREGISTERED</text><text fill="#eeeeee" stroke="none" font-family="Arial" font-size="24px" font-style="normal" font-weight="normal" text-decoration="none" x="400" y="960">UNREGISTERED</text><text fill="#eeeeee" stroke="none" font-family="Arial" font-size="24px" font-style="normal" font-weight="normal" text-decoration="none" x="400" y="990">UNREGISTERED</text><text fill="#eeeeee" stroke="none" font-family="Arial" font-size="24px" font-style="normal" font-weight="normal" text-decoration="none" x="600" y="0">UNREGISTERED</text><text fill="#eeeeee" stroke="none" font-family="Arial" font-size="24px" font-style="normal" font-weight="normal" text-decoration="none" x="600" y="30">UNREGISTERED</text><text fill="#eeeeee" stroke="none" font-family="Arial" font-size="24px" font-style="normal" font-weight="normal" text-decoration="none" x="600" y="60">UNREGISTERED</text><text fill="#eeeeee" stroke="none" font-family="Arial" font-size="24px" font-style="normal" font-weight="normal" text-decoration="none" x="600" y="90">UNREGISTERED</text><text fill="#eeeeee" stroke="none" font-family="Arial" font-size="24px" font-style="normal" font-weight="normal" text-decoration="none" x="600" y="120">UNREGISTERED</text><text fill="#eeeeee" stroke="none" font-family="Arial" font-size="24px" font-style="normal" font-weight="normal" text-decoration="none" x="600" y="150">UNREGISTERED</text><text fill="#eeeeee" stroke="none" font-family="Arial" font-size="24px" font-style="normal" font-weight="normal" text-decoration="none" x="600" y="180">UNREGISTERED</text><text fill="#eeeeee" stroke="none" font-family="Arial" font-size="24px" font-style="normal" font-weight="normal" text-decoration="none" x="600" y="210">UNREGISTERED</text><text fill="#eeeeee" stroke="none" font-family="Arial" font-size="24px" font-style="normal" font-weight="normal" text-decoration="none" x="600" y="240">UNREGISTERED</text><text fill="#eeeeee" stroke="none" font-family="Arial" font-size="24px" font-style="normal" font-weight="normal" text-decoration="none" x="600" y="270">UNREGISTERED</text><text fill="#eeeeee" stroke="none" font-family="Arial" font-size="24px" font-style="normal" font-weight="normal" text-decoration="none" x="600" y="300">UNREGISTERED</text><text fill="#eeeeee" stroke="none" font-family="Arial" font-size="24px" font-style="normal" font-weight="normal" text-decoration="none" x="600" y="330">UNREGISTERED</text><text fill="#eeeeee" stroke="none" font-family="Arial" font-size="24px" font-style="normal" font-weight="normal" text-decoration="none" x="600" y="360">UNREGISTERED</text><text fill="#eeeeee" stroke="none" font-family="Arial" font-size="24px" font-style="normal" font-weight="normal" text-decoration="none" x="600" y="390">UNREGISTERED</text><text fill="#eeeeee" stroke="none" font-family="Arial" font-size="24px" font-style="normal" font-weight="normal" text-decoration="none" x="600" y="420">UNREGISTERED</text><text fill="#eeeeee" stroke="none" font-family="Arial" font-size="24px" font-style="normal" font-weight="normal" text-decoration="none" x="600" y="450">UNREGISTERED</text><text fill="#eeeeee" stroke="none" font-family="Arial" font-size="24px" font-style="normal" font-weight="normal" text-decoration="none" x="600" y="480">UNREGISTERED</text><text fill="#eeeeee" stroke="none" font-family="Arial" font-size="24px" font-style="normal" font-weight="normal" text-decoration="none" x="600" y="510">UNREGISTERED</text><text fill="#eeeeee" stroke="none" font-family="Arial" font-size="24px" font-style="normal" font-weight="normal" text-decoration="none" x="600" y="540">UNREGISTERED</text><text fill="#eeeeee" stroke="none" font-family="Arial" font-size="24px" font-style="normal" font-weight="normal" text-decoration="none" x="600" y="570">UNREGISTERED</text><text fill="#eeeeee" stroke="none" font-family="Arial" font-size="24px" font-style="normal" font-weight="normal" text-decoration="none" x="600" y="600">UNREGISTERED</text><text fill="#eeeeee" stroke="none" font-family="Arial" font-size="24px" font-style="normal" font-weight="normal" text-decoration="none" x="600" y="630">UNREGISTERED</text><text fill="#eeeeee" stroke="none" font-family="Arial" font-size="24px" font-style="normal" font-weight="normal" text-decoration="none" x="600" y="660">UNREGISTERED</text><text fill="#eeeeee" stroke="none" font-family="Arial" font-size="24px" font-style="normal" font-weight="normal" text-decoration="none" x="600" y="690">UNREGISTERED</text><text fill="#eeeeee" stroke="none" font-family="Arial" font-size="24px" font-style="normal" font-weight="normal" text-decoration="none" x="600" y="720">UNREGISTERED</text><text fill="#eeeeee" stroke="none" font-family="Arial" font-size="24px" font-style="normal" font-weight="normal" text-decoration="none" x="600" y="750">UNREGISTERED</text><text fill="#eeeeee" stroke="none" font-family="Arial" font-size="24px" font-style="normal" font-weight="normal" text-decoration="none" x="600" y="780">UNREGISTERED</text><text fill="#eeeeee" stroke="none" font-family="Arial" font-size="24px" font-style="normal" font-weight="normal" text-decoration="none" x="600" y="810">UNREGISTERED</text><text fill="#eeeeee" stroke="none" font-family="Arial" font-size="24px" font-style="normal" font-weight="normal" text-decoration="none" x="600" y="840">UNREGISTERED</text><text fill="#eeeeee" stroke="none" font-family="Arial" font-size="24px" font-style="normal" font-weight="normal" text-decoration="none" x="600" y="870">UNREGISTERED</text><text fill="#eeeeee" stroke="none" font-family="Arial" font-size="24px" font-style="normal" font-weight="normal" text-decoration="none" x="600" y="900">UNREGISTERED</text><text fill="#eeeeee" stroke="none" font-family="Arial" font-size="24px" font-style="normal" font-weight="normal" text-decoration="none" x="600" y="930">UNREGISTERED</text><text fill="#eeeeee" stroke="none" font-family="Arial" font-size="24px" font-style="normal" font-weight="normal" text-decoration="none" x="600" y="960">UNREGISTERED</text><text fill="#eeeeee" stroke="none" font-family="Arial" font-size="24px" font-style="normal" font-weight="normal" text-decoration="none" x="600" y="990">UNREGISTERED</text><g transform="translate(-166,-94) scale(1,1)"><path fill="#C0C0C0" stroke="none" d="M 649 111 L 845 111 Q 855 111 855 121 L 855 178 Q 855 188 845 188 L 649 188 Q 639 188 639 178 L 639 121 Q 639 111 649 111 Z" opacity="0.2"/></g><g transform="translate(-166,-94) scale(1,1)"><path fill="#ffffff" stroke="none" d="M 642 104 L 838 104 Q 848 104 848 114 L 848 171 Q 848 181 838 181 L 642 181 Q 632 181 632 171 L 632 114 Q 632 104 642 104 Z"/></g><g transform="translate(-166,-94) scale(1,1)"><path fill="none" stroke="#000000" d="M 642 104 L 838 104 Q 848 104 848 114 L 848 171 Q 848 181 838 181 L 642 181 Q 632 181 632 171 L 632 114 Q 632 104 642 104 Z" stroke-miterlimit="10"/></g><g transform="translate(-166,-94) scale(1,1)"><path fill="none" stroke="#000000" d="M 632 129 L 848 129" stroke-miterlimit="10"/></g><g transform="translate(-166,-94) scale(1,1)"><g><path fill="none" stroke="none"/><text fill="#000000" stroke="none" font-family="Arial" font-size="13px" font-style="normal" font-weight="bold" text-decoration="none" x="665.602294921875" y="122">Escolhendo método PIX</text></g></g><g transform="translate(-166,-94) scale(1,1)"><g><path fill="none" stroke="none"/><text fill="#000000" stroke="none" font-family="Arial" font-size="13px" font-style="normal" font-weight="normal" text-decoration="none" x="637" y="145">do/cadastrarChavePIX</text></g></g><g transform="translate(-166,-94) scale(1,1)"><g><path fill="none" stroke="none"/><text fill="#000000" stroke="none" font-family="Arial" font-size="13px" font-style="normal" font-weight="normal" text-decoration="none" x="637" y="160">do/colarCodigo</text></g></g><g transform="translate(-166,-94) scale(1,1)"><g><path fill="none" stroke="none"/><text fill="#000000" stroke="none" font-family="Arial" font-size="13px" font-style="normal" font-weight="normal" text-decoration="none" x="637" y="175">do/escanearCodigoQR</text></g></g><g transform="translate(-166,-94) scale(1,1)"><path fill="#C0C0C0" stroke="none" d="M 407 151 C 407 137.7451648 418.4167376 127 432.5 127 C 446.5832624 127 458 137.7451648 458 151 C 458 164.2548352 446.5832624 175 432.5 175 C 418.4167376 175 407 164.2548352 407 151 Z" opacity="0.2"/></g><g transform="translate(-166,-94) scale(1,1)"><path fill="#000000" stroke="none" d="M 400 144 C 400 130.7451648 411.4167376 120 425.5 120 C 439.5832624 120 451 130.7451648 451 144 C 451 157.2548352 439.5832624 168 425.5 168 C 411.4167376 168 400 157.2548352 400 144 Z"/></g><g transform="translate(-166,-94) scale(1,1)"><path fill="#ffffff" stroke="none" d="M 176 120 L 269 120 L 279 130 L 279 168 L 176 168 L 176 120"/></g><g transform="translate(-166,-94) scale(1,1)"><path fill="none" stroke="#000000" d="M 176 120 L 269 120 L 279 130 L 279 168 L 176 168 L 176 120 L 176 120" stroke-miterlimit="10"/></g><g transform="translate(-166,-94) scale(1,1)"><path fill="none" stroke="#000000" d="M 269 120 L 269 130 L 279 130 L 269 120" stroke-miterlimit="10"/></g><g transform="translate(-166,-94) scale(1,1)"><g><path fill="none" stroke="none"/><text fill="#000000" stroke="none" font-family="Arial" font-size="13px" font-style="normal" font-weight="normal" text-decoration="none" x="181" y="135">Estado inicial</text></g></g><g transform="translate(-166,-94) scale(1,1)"><path fill="none" stroke="#000000" d="M 399 144 L 281 144" stroke-miterlimit="10" stroke-dasharray="3"/></g><g transform="translate(-166,-94) scale(1,1)"><path fill="#C0C0C0" stroke="none" d="M 649 231 L 845 231 Q 855 231 855 241 L 855 283 Q 855 293 845 293 L 649 293 Q 639 293 639 283 L 639 241 Q 639 231 649 231 Z" opacity="0.2"/></g><g transform="translate(-166,-94) scale(1,1)"><path fill="#ffffff" stroke="none" d="M 642 224 L 838 224 Q 848 224 848 234 L 848 276 Q 848 286 838 286 L 642 286 Q 632 286 632 276 L 632 234 Q 632 224 642 224 Z"/></g><g transform="translate(-166,-94) scale(1,1)"><path fill="none" stroke="#000000" d="M 642 224 L 838 224 Q 848 224 848 234 L 848 276 Q 848 286 838 286 L 642 286 Q 632 286 632 276 L 632 234 Q 632 224 642 224 Z" stroke-miterlimit="10"/></g><g transform="translate(-166,-94) scale(1,1)"><path fill="none" stroke="#000000" d="M 632 249 L 848 249" stroke-miterlimit="10"/></g><g transform="translate(-166,-94) scale(1,1)"><g><path fill="none" stroke="none"/><text fill="#000000" stroke="none" font-family="Arial" font-size="13px" font-style="normal" font-weight="bold" text-decoration="none" x="674.99365234375" y="242">Iniciando pagamento</text></g></g><g transform="translate(-166,-94) scale(1,1)"><g><path fill="none" stroke="none"/><text fill="#000000" stroke="none" font-family="Arial" font-size="13px" font-style="normal" font-weight="normal" text-decoration="none" x="637" y="265">do/iniciarPagamento</text></g></g><g transform="translate(-166,-94) scale(1,1)"><g><path fill="none" stroke="none"/><text fill="#000000" stroke="none" font-family="Arial" font-size="13px" font-style="normal" font-weight="normal" text-decoration="none" x="637" y="280">do/cancelarTransacao</text></g></g><g transform="translate(-166,-94) scale(1,1)"><path fill="#C0C0C0" stroke="none" d="M 649 447 L 853 447 Q 863 447 863 457 L 863 499 Q 863 509 853 509 L 649 509 Q 639 509 639 499 L 639 457 Q 639 447 649 447 Z" opacity="0.2"/></g><g transform="translate(-166,-94) scale(1,1)"><path fill="#ffffff" stroke="none" d="M 642 440 L 846 440 Q 856 440 856 450 L 856 492 Q 856 502 846 502 L 642 502 Q 632 502 632 492 L 632 450 Q 632 440 642 440 Z"/></g><g transform="translate(-166,-94) scale(1,1)"><path fill="none" stroke="#000000" d="M 642 440 L 846 440 Q 856 440 856 450 L 856 492 Q 856 502 846 502 L 642 502 Q 632 502 632 492 L 632 450 Q 632 440 642 440 Z" stroke-miterlimit="10"/></g><g transform="translate(-166,-94) scale(1,1)"><path fill="none" stroke="#000000" d="M 632 465 L 856 465" stroke-miterlimit="10"/></g><g transform="translate(-166,-94) scale(1,1)"><g><path fill="none" stroke="none"/><text fill="#000000" stroke="none" font-family="Arial" font-size="13px" font-style="normal" font-weight="bold" text-decoration="none" x="669.61181640625" y="458">Autorizando pagamento</text></g></g><g transform="translate(-166,-94) scale(1,1)"><g><path fill="none" stroke="none"/><text fill="#000000" stroke="none" font-family="Arial" font-size="13px" font-style="normal" font-weight="normal" text-decoration="none" x="637" y="481">do/autorizarPagamento</text></g></g><g transform="translate(-166,-94) scale(1,1)"><g><path fill="none" stroke="none"/><text fill="#000000" stroke="none" font-family="Arial" font-size="13px" font-style="normal" font-weight="normal" text-decoration="none" x="637" y="496">do/cancelarTransacao</text></g></g><g transform="translate(-166,-94) scale(1,1)"><path fill="#C0C0C0" stroke="none" d="M 649 647 L 853 647 Q 863 647 863 657 L 863 699 Q 863 709 853 709 L 649 709 Q 639 709 639 699 L 639 657 Q 639 647 649 647 Z" opacity="0.2"/></g><g transform="translate(-166,-94) scale(1,1)"><path fill="#ffffff" stroke="none" d="M 642 640 L 846 640 Q 856 640 856 650 L 856 692 Q 856 702 846 702 L 642 702 Q 632 702 632 692 L 632 650 Q 632 640 642 640 Z"/></g><g transform="translate(-166,-94) scale(1,1)"><path fill="none" stroke="#000000" d="M 642 640 L 846 640 Q 856 640 856 650 L 856 692 Q 856 702 846 702 L 642 702 Q 632 702 632 692 L 632 650 Q 632 640 642 640 Z" stroke-miterlimit="10"/></g><g transform="translate(-166,-94) scale(1,1)"><path fill="none" stroke="#000000" d="M 632 665 L 856 665" stroke-miterlimit="10"/></g><g transform="translate(-166,-94) scale(1,1)"><g><path fill="none" stroke="none"/><text fill="#000000" stroke="none" font-family="Arial" font-size="13px" font-style="normal" font-weight="bold" text-decoration="none" x="664.175048828125" y="658">Validando saldo em conta</text></g></g><g transform="translate(-166,-94) scale(1,1)"><g><path fill="none" stroke="none"/><text fill="#000000" stroke="none" font-family="Arial" font-size="13px" font-style="normal" font-weight="normal" text-decoration="none" x="637" y="681">do/validarSaldo</text></g></g><g transform="translate(-166,-94) scale(1,1)"><g><path fill="none" stroke="none"/><text fill="#000000" stroke="none" font-family="Arial" font-size="13px" font-style="normal" font-weight="normal" text-decoration="none" x="637" y="696">do/cancelarTransacao</text></g></g><g transform="translate(-166,-94) scale(1,1)"><path fill="#C0C0C0" stroke="none" d="M 657 847 L 853 847 Q 863 847 863 857 L 863 899 Q 863 909 853 909 L 657 909 Q 647 909 647 899 L 647 857 Q 647 847 657 847 Z" opacity="0.2"/></g><g transform="translate(-166,-94) scale(1,1)"><path fill="#ffffff" stroke="none" d="M 650 840 L 846 840 Q 856 840 856 850 L 856 892 Q 856 902 846 902 L 650 902 Q 640 902 640 892 L 640 850 Q 640 840 650 840 Z"/></g><g transform="translate(-166,-94) scale(1,1)"><path fill="none" stroke="#000000" d="M 650 840 L 846 840 Q 856 840 856 850 L 856 892 Q 856 902 846 902 L 650 902 Q 640 902 640 892 L 640 850 Q 640 840 650 840 Z" stroke-miterlimit="10"/></g><g transform="translate(-166,-94) scale(1,1)"><path fill="none" stroke="#000000" d="M 640 865 L 856 865" stroke-miterlimit="10"/></g><g transform="translate(-166,-94) scale(1,1)"><g><path fill="none" stroke="none"/><text fill="#000000" stroke="none" font-family="Arial" font-size="13px" font-style="normal" font-weight="bold" text-decoration="none" x="680.102294921875" y="858">Aceitando pagamento</text></g></g><g transform="translate(-166,-94) scale(1,1)"><g><path fill="none" stroke="none"/><text fill="#000000" stroke="none" font-family="Arial" font-size="13px" font-style="normal" font-weight="normal" text-decoration="none" x="645" y="881">do/aceitarPagamento</text></g></g><g transform="translate(-166,-94) scale(1,1)"><g><path fill="none" stroke="none"/><text fill="#000000" stroke="none" font-family="Arial" font-size="13px" font-style="normal" font-weight="normal" text-decoration="none" x="645" y="896">do/cancelarTransacao</text></g></g><g transform="translate(-166,-94) scale(1,1)"><path fill="#C0C0C0" stroke="none" d="M 657 959 L 853 959 Q 863 959 863 969 L 863 996 Q 863 1006 853 1006 L 657 1006 Q 647 1006 647 996 L 647 969 Q 647 959 657 959 Z" opacity="0.2"/></g><g transform="translate(-166,-94) scale(1,1)"><path fill="#ffffff" stroke="none" d="M 650 952 L 846 952 Q 856 952 856 962 L 856 989 Q 856 999 846 999 L 650 999 Q 640 999 640 989 L 640 962 Q 640 952 650 952 Z"/></g><g transform="translate(-166,-94) scale(1,1)"><path fill="none" stroke="#000000" d="M 650 952 L 846 952 Q 856 952 856 962 L 856 989 Q 856 999 846 999 L 650 999 Q 640 999 640 989 L 640 962 Q 640 952 650 952 Z" stroke-miterlimit="10"/></g><g transform="translate(-166,-94) scale(1,1)"><path fill="none" stroke="#000000" d="M 640 977 L 856 977" stroke-miterlimit="10"/></g><g transform="translate(-166,-94) scale(1,1)"><g><path fill="none" stroke="none"/><text fill="#000000" stroke="none" font-family="Arial" font-size="13px" font-style="normal" font-weight="bold" text-decoration="none" x="683.707763671875" y="970">Efetuando transação</text></g></g><g transform="translate(-166,-94) scale(1,1)"><g><path fill="none" stroke="none"/><text fill="#000000" stroke="none" font-family="Arial" font-size="13px" font-style="normal" font-weight="normal" text-decoration="none" x="645" y="993">do/efetuarPagamento</text></g></g><g transform="translate(-166,-94) scale(1,1)"><path fill="#C0C0C0" stroke="none" d="M 657 1063 L 853 1063 Q 863 1063 863 1073 L 863 1100 Q 863 1110 853 1110 L 657 1110 Q 647 1110 647 1100 L 647 1073 Q 647 1063 657 1063 Z" opacity="0.2"/></g><g transform="translate(-166,-94) scale(1,1)"><path fill="#ffffff" stroke="none" d="M 650 1056 L 846 1056 Q 856 1056 856 1066 L 856 1093 Q 856 1103 846 1103 L 650 1103 Q 640 1103 640 1093 L 640 1066 Q 640 1056 650 1056 Z"/></g><g transform="translate(-166,-94) scale(1,1)"><path fill="none" stroke="#000000" d="M 650 1056 L 846 1056 Q 856 1056 856 1066 L 856 1093 Q 856 1103 846 1103 L 650 1103 Q 640 1103 640 1093 L 640 1066 Q 640 1056 650 1056 Z" stroke-miterlimit="10"/></g><g transform="translate(-166,-94) scale(1,1)"><path fill="none" stroke="#000000" d="M 640 1081 L 856 1081" stroke-miterlimit="10"/></g><g transform="translate(-166,-94) scale(1,1)"><g><path fill="none" stroke="none"/><text fill="#000000" stroke="none" font-family="Arial" font-size="13px" font-style="normal" font-weight="bold" text-decoration="none" x="686.240478515625" y="1074">Notificando clientes</text></g></g><g transform="translate(-166,-94) scale(1,1)"><g><path fill="none" stroke="none"/><text fill="#000000" stroke="none" font-family="Arial" font-size="13px" font-style="normal" font-weight="normal" text-decoration="none" x="645" y="1097">do/notificarClientes</text></g></g><g transform="translate(-166,-94) scale(1,1)"><path fill="#C0C0C0" stroke="none" d="M 377 919 L 517.09716796875 919 Q 527.09716796875 919 527.09716796875 929 L 527.09716796875 956 Q 527.09716796875 966 517.09716796875 966 L 377 966 Q 367 966 367 956 L 367 929 Q 367 919 377 919 Z" opacity="0.2"/></g><g transform="translate(-166,-94) scale(1,1)"><path fill="#ffffff" stroke="none" d="M 370 912 L 510.09716796875 912 Q 520.09716796875 912 520.09716796875 922 L 520.09716796875 949 Q 520.09716796875 959 510.09716796875 959 L 370 959 Q 360 959 360 949 L 360 922 Q 360 912 370 912 Z"/></g><g transform="translate(-166,-94) scale(1,1)"><path fill="none" stroke="#000000" d="M 370 912 L 510.09716796875 912 Q 520.09716796875 912 520.09716796875 922 L 520.09716796875 949 Q 520.09716796875 959 510.09716796875 959 L 370 959 Q 360 959 360 949 L 360 922 Q 360 912 370 912 Z" stroke-miterlimit="10"/></g><g transform="translate(-166,-94) scale(1,1)"><path fill="none" stroke="#000000" d="M 360 937 L 520.09716796875 937" stroke-miterlimit="10"/></g><g transform="translate(-166,-94) scale(1,1)"><g><path fill="none" stroke="none"/><text fill="#000000" stroke="none" font-family="Arial" font-size="13px" font-style="normal" font-weight="bold" text-decoration="none" x="372.5" y="930">Cancelando operação</text></g></g><g transform="translate(-166,-94) scale(1,1)"><g><path fill="none" stroke="none"/><text fill="#000000" stroke="none" font-family="Arial" font-size="13px" font-style="normal" font-weight="normal" text-decoration="none" x="365" y="953">do/cancelarTransacao</text></g></g><g transform="translate(-166,-94) scale(1,1)"><path fill="none" stroke="#000000" d="M 452 144 L 631 143" stroke-miterlimit="10"/></g><g transform="translate(-166,-94) scale(1,1)"><path fill="none" stroke="#000000" d="M 620.8610002192668 147.26622590192926 L 631 143 L 620.8139672352668 138.84732176592252" stroke-miterlimit="10"/></g><g transform="translate(-166,-94) scale(1,1)"><path fill="none" stroke="#000000" d="M 740 182 L 740 223" stroke-miterlimit="10"/></g><g transform="translate(-166,-94) scale(1,1)"><path fill="none" stroke="#000000" d="M 735.790482243984 212.83732514237585 L 740 223 L 744.209517756016 212.83732514237585" stroke-miterlimit="10"/></g><g transform="translate(-166,-94) scale(1,1)"><path fill="#C0C0C0" stroke="none" d="M 423 1079 C 423 1065.7451648 433.9690224 1055 447.5 1055 C 461.0309776 1055 472 1065.7451648 472 1079 C 472 1092.2548352 461.0309776 1103 447.5 1103 C 433.9690224 1103 423 1092.2548352 423 1079 Z" opacity="0.2"/></g><g transform="translate(-166,-94) scale(1,1)"><path fill="none" stroke="#000000" d="M 416 1072 C 416 1058.7451648 426.9690224 1048 440.5 1048 C 454.0309776 1048 465 1058.7451648 465 1072 C 465 1085.2548352 454.0309776 1096 440.5 1096 C 426.9690224 1096 416 1085.2548352 416 1072 Z" stroke-miterlimit="10"/></g><g transform="translate(-166,-94) scale(1,1)"><path fill="#000000" stroke="none" d="M 421 1072 C 421 1061.5065888 429.7304464 1053 440.5 1053 C 451.2695536 1053 460 1061.5065888 460 1072 C 460 1082.4934112 451.2695536 1091 440.5 1091 C 429.7304464 1091 421 1082.4934112 421 1072 Z"/></g><g transform="translate(-166,-94) scale(1,1)"><path fill="none" stroke="#000000" d="M 440 960 L 440 1047" stroke-miterlimit="10"/></g><g transform="translate(-166,-94) scale(1,1)"><path fill="none" stroke="#000000" d="M 435.790482243984 1036.837325142376 L 440 1047 L 444.209517756016 1036.837325142376" stroke-miterlimit="10"/></g><g transform="translate(-166,-94) scale(1,1)"><path fill="none" stroke="#000000" d="M 748 903 L 748 951" stroke-miterlimit="10"/></g><g transform="translate(-166,-94) scale(1,1)"><path fill="none" stroke="#000000" d="M 743.790482243984 940.8373251423759 L 748 951 L 752.209517756016 940.8373251423759" stroke-miterlimit="10"/></g><g transform="translate(-166,-94) scale(1,1)"><path fill="none" stroke="#000000" d="M 748 1000 L 748 1055" stroke-miterlimit="10"/></g><g transform="translate(-166,-94) scale(1,1)"><path fill="none" stroke="#000000" d="M 743.790482243984 1044.837325142376 L 748 1055 L 752.209517756016 1044.837325142376" stroke-miterlimit="10"/></g><g transform="translate(-166,-94) scale(1,1)"><path fill="#ffffff" stroke="none" d="M 184 1048 L 285 1048 L 295 1058 L 295 1095 L 184 1095 L 184 1048"/></g><g transform="translate(-166,-94) scale(1,1)"><path fill="none" stroke="#000000" d="M 184 1048 L 285 1048 L 295 1058 L 295 1095 L 184 1095 L 184 1048 L 184 1048" stroke-miterlimit="10"/></g><g transform="translate(-166,-94) scale(1,1)"><path fill="none" stroke="#000000" d="M 285 1048 L 285 1058 L 295 1058 L 285 1048" stroke-miterlimit="10"/></g><g transform="translate(-166,-94) scale(1,1)"><g><path fill="none" stroke="none"/><text fill="#000000" stroke="none" font-family="Arial" font-size="13px" font-style="normal" font-weight="normal" text-decoration="none" x="189" y="1063">Estado final</text></g></g><g transform="translate(-166,-94) scale(1,1)"><path fill="none" stroke="#000000" d="M 415 1072 L 297 1072" stroke-miterlimit="10" stroke-dasharray="3"/></g><g transform="translate(-166,-94) scale(1,1)"><path fill="none" stroke="#000000" d="M 639 1077 L 466 1073" stroke-miterlimit="10"/></g><g transform="translate(-166,-94) scale(1,1)"><path fill="none" stroke="#000000" d="M 476.257263355216 1069.0265193517846 L 466 1073 L 476.06265558615615 1077.4433053636228" stroke-miterlimit="10"/></g><g transform="translate(-166,-94) scale(1,1)"><path fill="#C0C0C0" stroke="none" d="M 727 367.5 L 750.5 343 L 773 367.5 L 750.5 391 L 727 367.5" opacity="0.2"/></g><g transform="translate(-166,-94) scale(1,1)"><path fill="#ffffff" stroke="none" d="M 720 360 L 743 336 L 766 360 L 743 384 L 720 360"/></g><g transform="translate(-166,-94) scale(1,1)"><path fill="none" stroke="#000000" d="M 720 360 L 743 336 L 766 360 L 743 384 L 720 360 L 720 360" stroke-miterlimit="10"/></g><g transform="translate(-166,-94) scale(1,1)"><path fill="#C0C0C0" stroke="none" d="M 727 575.5 L 751.5 551 L 775 575.5 L 751.5 599 L 727 575.5" opacity="0.2"/></g><g transform="translate(-166,-94) scale(1,1)"><path fill="#ffffff" stroke="none" d="M 720 568 L 744 544 L 768 568 L 744 592 L 720 568"/></g><g transform="translate(-166,-94) scale(1,1)"><path fill="none" stroke="#000000" d="M 720 568 L 744 544 L 768 568 L 744 592 L 720 568 L 720 568" stroke-miterlimit="10"/></g><g transform="translate(-166,-94) scale(1,1)"><path fill="#C0C0C0" stroke="none" d="M 727 775.5 L 751.5 751 L 775 775.5 L 751.5 799 L 727 775.5" opacity="0.2"/></g><g transform="translate(-166,-94) scale(1,1)"><path fill="#ffffff" stroke="none" d="M 720 768 L 744 744 L 768 768 L 744 792 L 720 768"/></g><g transform="translate(-166,-94) scale(1,1)"><path fill="none" stroke="#000000" d="M 720 768 L 744 744 L 768 768 L 744 792 L 720 768 L 720 768" stroke-miterlimit="10"/></g><g transform="translate(-166,-94) scale(1,1)"><path fill="none" stroke="#000000" d="M 741 287 L 742 335" stroke-miterlimit="10"/></g><g transform="translate(-166,-94) scale(1,1)"><path fill="none" stroke="#000000" d="M 737.5797190094205 324.92720912734103 L 742 335 L 745.9969280683424 324.75185060528014" stroke-miterlimit="10"/></g><g transform="translate(-166,-94) scale(1,1)"><path fill="none" stroke="#000000" d="M 719 360 L 440 360 L 440 911" stroke-miterlimit="10"/></g><g transform="translate(-166,-94) scale(1,1)"><path fill="none" stroke="#000000" d="M 435.790482243984 900.8373251423759 L 440 911 L 444.209517756016 900.8373251423759" stroke-miterlimit="10"/></g><g transform="translate(-166,-94) scale(1,1)"><g><path fill="none" stroke="none"/><text fill="#000000" stroke="none" font-family="Arial" font-size="13px" font-style="normal" font-weight="normal" text-decoration="none" x="470.5" y="347"> [Se necessário] / Cancelar Transacao</text></g></g><g transform="translate(-166,-94) scale(1,1)"><path fill="none" stroke="#000000" d="M 744 503 L 744 543" stroke-miterlimit="10"/></g><g transform="translate(-166,-94) scale(1,1)"><path fill="none" stroke="#000000" d="M 739.790482243984 532.8373251423759 L 744 543 L 748.209517756016 532.8373251423759" stroke-miterlimit="10"/></g><g transform="translate(-166,-94) scale(1,1)"><path fill="none" stroke="#000000" d="M 719 568 L 440 568 L 440 911" stroke-miterlimit="10"/></g><g transform="translate(-166,-94) scale(1,1)"><path fill="none" stroke="#000000" d="M 435.790482243984 900.8373251423759 L 440 911 L 444.209517756016 900.8373251423759" stroke-miterlimit="10"/></g><g transform="translate(-166,-94) scale(1,1)"><g><path fill="none" stroke="none"/><text fill="#000000" stroke="none" font-family="Arial" font-size="13px" font-style="normal" font-weight="normal" text-decoration="none" x="470.5" y="555"> [Se necessário] / Cancelar Transacao</text></g></g><g transform="translate(-166,-94) scale(1,1)"><path fill="none" stroke="#000000" d="M 744 703 L 744 743" stroke-miterlimit="10"/></g><g transform="translate(-166,-94) scale(1,1)"><path fill="none" stroke="#000000" d="M 739.790482243984 732.8373251423759 L 744 743 L 748.209517756016 732.8373251423759" stroke-miterlimit="10"/></g><g transform="translate(-166,-94) scale(1,1)"><path fill="none" stroke="#000000" d="M 719 768 L 440 768 L 440 911" stroke-miterlimit="10"/></g><g transform="translate(-166,-94) scale(1,1)"><path fill="none" stroke="#000000" d="M 435.790482243984 900.8373251423759 L 440 911 L 444.209517756016 900.8373251423759" stroke-miterlimit="10"/></g><g transform="translate(-166,-94) scale(1,1)"><g><path fill="none" stroke="none"/><text fill="#000000" stroke="none" font-family="Arial" font-size="13px" font-style="normal" font-weight="normal" text-decoration="none" x="470.5" y="755"> [Se necessário] / Cancelar Transacao</text></g></g><g transform="translate(-166,-94) scale(1,1)"><path fill="none" stroke="#000000" d="M 745 793 L 747 839" stroke-miterlimit="10"/></g><g transform="translate(-166,-94) scale(1,1)"><path fill="none" stroke="#000000" d="M 742.3530169751094 829.0297668649936 L 747 839 L 750.764106250815 828.6640673312673" stroke-miterlimit="10"/></g><g transform="translate(-166,-94) scale(1,1)"><path fill="none" stroke="#000000" d="M 743 385 L 744 439" stroke-miterlimit="10"/></g><g transform="translate(-166,-94) scale(1,1)"><path fill="none" stroke="#000000" d="M 739.603038433977 428.9170079347985 L 744 439 L 748.0206307240026 428.76112659609436" stroke-miterlimit="10"/></g><g transform="translate(-166,-94) scale(1,1)"><path fill="none" stroke="#000000" d="M 744 593 L 744 639" stroke-miterlimit="10"/></g><g transform="translate(-166,-94) scale(1,1)"><path fill="none" stroke="#000000" d="M 739.790482243984 628.8373251423759 L 744 639 L 748.209517756016 628.8373251423759" stroke-miterlimit="10"/></g></g></svg>