<svg version="1.1" xmlns="http://www.w3.org/2000/svg" xmlns:xlink="http://www.w3.org/1999/xlink" width="788" height="172"><defs/><g><text fill="#eeeeee" stroke="none" font-family="Arial" font-size="24px" font-style="normal" font-weight="normal" text-decoration="none" x="0" y="0">UNREGISTERED</text><text fill="#eeeeee" stroke="none" font-family="Arial" font-size="24px" font-style="normal" font-weight="normal" text-decoration="none" x="0" y="30">UNREGISTERED</text><text fill="#eeeeee" stroke="none" font-family="Arial" font-size="24px" font-style="normal" font-weight="normal" text-decoration="none" x="0" y="60">UNREGISTERED</text><text fill="#eeeeee" stroke="none" font-family="Arial" font-size="24px" font-style="normal" font-weight="normal" text-decoration="none" x="0" y="90">UNREGISTERED</text><text fill="#eeeeee" stroke="none" font-family="Arial" font-size="24px" font-style="normal" font-weight="normal" text-decoration="none" x="0" y="120">UNREGISTERED</text><text fill="#eeeeee" stroke="none" font-family="Arial" font-size="24px" font-style="normal" font-weight="normal" text-decoration="none" x="0" y="150">UNREGISTERED</text><text fill="#eeeeee" stroke="none" font-family="Arial" font-size="24px" font-style="normal" font-weight="normal" text-decoration="none" x="200" y="0">UNREGISTERED</text><text fill="#eeeeee" stroke="none" font-family="Arial" font-size="24px" font-style="normal" font-weight="normal" text-decoration="none" x="200" y="30">UNREGISTERED</text><text fill="#eeeeee" stroke="none" font-family="Arial" font-size="24px" font-style="normal" font-weight="normal" text-decoration="none" x="200" y="60">UNREGISTERED</text><text fill="#eeeeee" stroke="none" font-family="Arial" font-size="24px" font-style="normal" font-weight="normal" text-decoration="none" x="200" y="90">UNREGISTERED</text><text fill="#eeeeee" stroke="none" font-family="Arial" font-size="24px" font-style="normal" font-weight="normal" text-decoration="none" x="200" y="120">UNREGISTERED</text><text fill="#eeeeee" stroke="none" font-family="Arial" font-size="24px" font-style="normal" font-weight="normal" text-decoration="none" x="200" y="150">UNREGISTERED</text><text fill="#eeeeee" stroke="none" font-family="Arial" font-size="24px" font-style="normal" font-weight="normal" text-decoration="none" x="400" y="0">UNREGISTERED</text><text fill="#eeeeee" stroke="none" font-family="Arial" font-size="24px" font-style="normal" font-weight="normal" text-decoration="none" x="400" y="30">UNREGISTERED</text><text fill="#eeeeee" stroke="none" font-family="Arial" font-size="24px" font-style="normal" font-weight="normal" text-decoration="none" x="400" y="60">UNREGISTERED</text><text fill="#eeeeee" stroke="none" font-family="Arial" font-size="24px" font-style="normal" font-weight="normal" text-decoration="none" x="400" y="90">UNREGISTERED</text><text fill="#eeeeee" stroke="none" font-family="Arial" font-size="24px" font-style="normal" font-weight="normal" text-decoration="none" x="400" y="120">UNREGISTERED</text><text fill="#eeeeee" stroke="none" font-family="Arial" font-size="24px" font-style="normal" font-weight="normal" text-decoration="none" x="400" y="150">UNREGISTERED</text><text fill="#eeeeee" stroke="none" font-family="Arial" font-size="24px" font-style="normal" font-weight="normal" text-decoration="none" x="600" y="0">UNREGISTERED</text><text fill="#eeeeee" stroke="none" font-family="Arial" font-size="24px" font-style="normal" font-weight="normal" text-decoration="none" x="600" y="30">UNREGISTERED</text><text fill="#eeeeee" stroke="none" font-family="Arial" font-size="24px" font-style="normal" font-weight="normal" text-decoration="none" x="600" y="60">UNREGISTERED</text><text fill="#eeeeee" stroke="none" font-family="Arial" font-size="24px" font-style="normal" font-weight="normal" text-decoration="none" x="600" y="90">UNREGISTERED</text><text fill="#eeeeee" stroke="none" font-family="Arial" font-size="24px" font-style="normal" font-weight="normal" text-decoration="none" x="600" y="120">UNREGISTERED</text><text fill="#eeeeee" stroke="none" font-family="Arial" font-size="24px" font-style="normal" font-weight="normal" text-decoration="none" x="600" y="150">UNREGISTERED</text><g transform="translate(-190,-86) scale(1,1)"><path fill="#C0C0C0" stroke="none" d="M 239 227 C 239 215.954304 248.62587680000001 207 260.5 207 C 272.3741232 207 282 215.954304 282 227 C 282 238.045696 272.3741232 247 260.5 247 C 248.62587680000001 247 239 238.045696 239 227 Z" opacity="0.2"/></g><g transform="translate(-190,-86) scale(1,1)"><path fill="#000000" stroke="none" d="M 232 220 C 232 208.954304 241.62587680000001 200 253.5 200 C 265.3741232 200 275 208.954304 275 220 C 275 231.045696 265.3741232 240 253.5 240 C 241.62587680000001 240 232 231.045696 232 220 Z"/></g><g transform="translate(-190,-86) scale(1,1)"><path fill="#C0C0C0" stroke="none" d="M 433 199 L 541 199 Q 551 199 551 209 L 551 245 Q 551 255 541 255 L 433 255 Q 423 255 423 245 L 423 209 Q 423 199 433 199 Z" opacity="0.2"/></g><g transform="translate(-190,-86) scale(1,1)"><path fill="#ffffff" stroke="none" d="M 426 192 L 534 192 Q 544 192 544 202 L 544 238 Q 544 248 534 248 L 426 248 Q 416 248 416 238 L 416 202 Q 416 192 426 192 Z"/></g><g transform="translate(-190,-86) scale(1,1)"><path fill="none" stroke="#000000" d="M 426 192 L 534 192 Q 544 192 544 202 L 544 238 Q 544 248 534 248 L 426 248 Q 416 248 416 238 L 416 202 Q 416 192 426 192 Z" stroke-miterlimit="10"/></g><g transform="translate(-190,-86) scale(1,1)"><g><path fill="none" stroke="none"/><text fill="#000000" stroke="none" font-family="Arial" font-size="13px" font-style="normal" font-weight="bold" text-decoration="none" x="460.135009765625" y="210">Banco</text></g></g><g transform="translate(-190,-86) scale(1,1)"><path fill="#C0C0C0" stroke="none" d="M 681 199 L 781 199 Q 791 199 791 209 L 791 245 Q 791 255 781 255 L 681 255 Q 671 255 671 245 L 671 209 Q 671 199 681 199 Z" opacity="0.2"/></g><g transform="translate(-190,-86) scale(1,1)"><path fill="#ffffff" stroke="none" d="M 674 192 L 774 192 Q 784 192 784 202 L 784 238 Q 784 248 774 248 L 674 248 Q 664 248 664 238 L 664 202 Q 664 192 674 192 Z"/></g><g transform="translate(-190,-86) scale(1,1)"><path fill="none" stroke="#000000" d="M 674 192 L 774 192 Q 784 192 784 202 L 784 238 Q 784 248 774 248 L 674 248 Q 664 248 664 238 L 664 202 Q 664 192 674 192 Z" stroke-miterlimit="10"/></g><g transform="translate(-190,-86) scale(1,1)"><g><path fill="none" stroke="none"/><text fill="#000000" stroke="none" font-family="Arial" font-size="13px" font-style="normal" font-weight="bold" text-decoration="none" x="693.661376953125" y="210">Insituição</text></g></g><g transform="translate(-190,-86) scale(1,1)"><path fill="#C0C0C0" stroke="none" d="M 903 227 C 903 215.954304 912.1781616 207 923.5 207 C 934.8218384 207 944 215.954304 944 227 C 944 238.045696 934.8218384 247 923.5 247 C 912.1781616 247 903 238.045696 903 227 Z" opacity="0.2"/></g><g transform="translate(-190,-86) scale(1,1)"><path fill="none" stroke="#000000" d="M 896 220 C 896 208.954304 905.1781616 200 916.5 200 C 927.8218384 200 937 208.954304 937 220 C 937 231.045696 927.8218384 240 916.5 240 C 905.1781616 240 896 231.045696 896 220 Z" stroke-miterlimit="10"/></g><g transform="translate(-190,-86) scale(1,1)"><path fill="#000000" stroke="none" d="M 901 220 C 901 211.715728 907.9395856 205 916.5 205 C 925.0604144 205 932 211.715728 932 220 C 932 228.284272 925.0604144 235 916.5 235 C 907.9395856 235 901 228.284272 901 220 Z"/></g><g transform="translate(-190,-86) scale(1,1)"><path fill="none" stroke="#000000" d="M 276 220 L 415 220" stroke-miterlimit="10"/></g><g transform="translate(-190,-86) scale(1,1)"><path fill="none" stroke="#000000" d="M 404.83732514237585 224.209517756016 L 415 220 L 404.83732514237585 215.790482243984" stroke-miterlimit="10"/></g><g transform="translate(-190,-86) scale(1,1)"><path fill="none" stroke="#000000" d="M 545 220 L 663 220" stroke-miterlimit="10"/></g><g transform="translate(-190,-86) scale(1,1)"><path fill="none" stroke="#000000" d="M 652.8373251423759 224.209517756016 L 663 220 L 652.8373251423758 215.790482243984" stroke-miterlimit="10"/></g><g transform="translate(-190,-86) scale(1,1)"><path fill="none" stroke="#000000" d="M 785 220 L 895 220" stroke-miterlimit="10"/></g><g transform="translate(-190,-86) scale(1,1)"><path fill="none" stroke="#000000" d="M 884.8373251423759 224.209517756016 L 895 220 L 884.8373251423758 215.790482243984" stroke-miterlimit="10"/></g><g transform="translate(-190,-86) scale(1,1)"><path fill="#ffffff" stroke="none" d="M 200 96 L 293 96 L 303 106 L 303 144 L 200 144 L 200 96"/></g><g transform="translate(-190,-86) scale(1,1)"><path fill="none" stroke="#000000" d="M 200 96 L 293 96 L 303 106 L 303 144 L 200 144 L 200 96 L 200 96" stroke-miterlimit="10"/></g><g transform="translate(-190,-86) scale(1,1)"><path fill="none" stroke="#000000" d="M 293 96 L 293 106 L 303 106 L 293 96" stroke-miterlimit="10"/></g><g transform="translate(-190,-86) scale(1,1)"><g><path fill="none" stroke="none"/><text fill="#000000" stroke="none" font-family="Arial" font-size="13px" font-style="normal" font-weight="normal" text-decoration="none" x="205" y="111">Estado inicial</text></g></g><g transform="translate(-190,-86) scale(1,1)"><path fill="none" stroke="#000000" d="M 253 199 L 252 146" stroke-miterlimit="10" stroke-dasharray="3"/></g><g transform="translate(-190,-86) scale(1,1)"><path fill="#ffffff" stroke="none" d="M 864 96 L 957 96 L 967 106 L 967 142 L 864 142 L 864 96"/></g><g transform="translate(-190,-86) scale(1,1)"><path fill="none" stroke="#000000" d="M 864 96 L 957 96 L 967 106 L 967 142 L 864 142 L 864 96 L 864 96" stroke-miterlimit="10"/></g><g transform="translate(-190,-86) scale(1,1)"><path fill="none" stroke="#000000" d="M 957 96 L 957 106 L 967 106 L 957 96" stroke-miterlimit="10"/></g><g transform="translate(-190,-86) scale(1,1)"><g><path fill="none" stroke="none"/><text fill="#000000" stroke="none" font-family="Arial" font-size="13px" font-style="normal" font-weight="normal" text-decoration="none" x="869" y="111">Estado final</text></g></g><g transform="translate(-190,-86) scale(1,1)"><path fill="none" stroke="#000000" d="M 916 199 L 916 144" stroke-miterlimit="10" stroke-dasharray="3"/></g></g></svg>