<svg version="1.1" xmlns="http://www.w3.org/2000/svg" xmlns:xlink="http://www.w3.org/1999/xlink" width="996" height="244"><defs/><g><text fill="#eeeeee" stroke="none" font-family="Arial" font-size="24px" font-style="normal" font-weight="normal" text-decoration="none" x="0" y="0">UNREGISTERED</text><text fill="#eeeeee" stroke="none" font-family="Arial" font-size="24px" font-style="normal" font-weight="normal" text-decoration="none" x="0" y="30">UNREGISTERED</text><text fill="#eeeeee" stroke="none" font-family="Arial" font-size="24px" font-style="normal" font-weight="normal" text-decoration="none" x="0" y="60">UNREGISTERED</text><text fill="#eeeeee" stroke="none" font-family="Arial" font-size="24px" font-style="normal" font-weight="normal" text-decoration="none" x="0" y="90">UNREGISTERED</text><text fill="#eeeeee" stroke="none" font-family="Arial" font-size="24px" font-style="normal" font-weight="normal" text-decoration="none" x="0" y="120">UNREGISTERED</text><text fill="#eeeeee" stroke="none" font-family="Arial" font-size="24px" font-style="normal" font-weight="normal" text-decoration="none" x="0" y="150">UNREGISTERED</text><text fill="#eeeeee" stroke="none" font-family="Arial" font-size="24px" font-style="normal" font-weight="normal" text-decoration="none" x="0" y="180">UNREGISTERED</text><text fill="#eeeeee" stroke="none" font-family="Arial" font-size="24px" font-style="normal" font-weight="normal" text-decoration="none" x="0" y="210">UNREGISTERED</text><text fill="#eeeeee" stroke="none" font-family="Arial" font-size="24px" font-style="normal" font-weight="normal" text-decoration="none" x="0" y="240">UNREGISTERED</text><text fill="#eeeeee" stroke="none" font-family="Arial" font-size="24px" font-style="normal" font-weight="normal" text-decoration="none" x="200" y="0">UNREGISTERED</text><text fill="#eeeeee" stroke="none" font-family="Arial" font-size="24px" font-style="normal" font-weight="normal" text-decoration="none" x="200" y="30">UNREGISTERED</text><text fill="#eeeeee" stroke="none" font-family="Arial" font-size="24px" font-style="normal" font-weight="normal" text-decoration="none" x="200" y="60">UNREGISTERED</text><text fill="#eeeeee" stroke="none" font-family="Arial" font-size="24px" font-style="normal" font-weight="normal" text-decoration="none" x="200" y="90">UNREGISTERED</text><text fill="#eeeeee" stroke="none" font-family="Arial" font-size="24px" font-style="normal" font-weight="normal" text-decoration="none" x="200" y="120">UNREGISTERED</text><text fill="#eeeeee" stroke="none" font-family="Arial" font-size="24px" font-style="normal" font-weight="normal" text-decoration="none" x="200" y="150">UNREGISTERED</text><text fill="#eeeeee" stroke="none" font-family="Arial" font-size="24px" font-style="normal" font-weight="normal" text-decoration="none" x="200" y="180">UNREGISTERED</text><text fill="#eeeeee" stroke="none" font-family="Arial" font-size="24px" font-style="normal" font-weight="normal" text-decoration="none" x="200" y="210">UNREGISTERED</text><text fill="#eeeeee" stroke="none" font-family="Arial" font-size="24px" font-style="normal" font-weight="normal" text-decoration="none" x="200" y="240">UNREGISTERED</text><text fill="#eeeeee" stroke="none" font-family="Arial" font-size="24px" font-style="normal" font-weight="normal" text-decoration="none" x="400" y="0">UNREGISTERED</text><text fill="#eeeeee" stroke="none" font-family="Arial" font-size="24px" font-style="normal" font-weight="normal" text-decoration="none" x="400" y="30">UNREGISTERED</text><text fill="#eeeeee" stroke="none" font-family="Arial" font-size="24px" font-style="normal" font-weight="normal" text-decoration="none" x="400" y="60">UNREGISTERED</text><text fill="#eeeeee" stroke="none" font-family="Arial" font-size="24px" font-style="normal" font-weight="normal" text-decoration="none" x="400" y="90">UNREGISTERED</text><text fill="#eeeeee" stroke="none" font-family="Arial" font-size="24px" font-style="normal" font-weight="normal" text-decoration="none" x="400" y="120">UNREGISTERED</text><text fill="#eeeeee" stroke="none" font-family="Arial" font-size="24px" font-style="normal" font-weight="normal" text-decoration="none" x="400" y="150">UNREGISTERED</text><text fill="#eeeeee" stroke="none" font-family="Arial" font-size="24px" font-style="normal" font-weight="normal" text-decoration="none" x="400" y="180">UNREGISTERED</text><text fill="#eeeeee" stroke="none" font-family="Arial" font-size="24px" font-style="normal" font-weight="normal" text-decoration="none" x="400" y="210">UNREGISTERED</text><text fill="#eeeeee" stroke="none" font-family="Arial" font-size="24px" font-style="normal" font-weight="normal" text-decoration="none" x="400" y="240">UNREGISTERED</text><text fill="#eeeeee" stroke="none" font-family="Arial" font-size="24px" font-style="normal" font-weight="normal" text-decoration="none" x="600" y="0">UNREGISTERED</text><text fill="#eeeeee" stroke="none" font-family="Arial" font-size="24px" font-style="normal" font-weight="normal" text-decoration="none" x="600" y="30">UNREGISTERED</text><text fill="#eeeeee" stroke="none" font-family="Arial" font-size="24px" font-style="normal" font-weight="normal" text-decoration="none" x="600" y="60">UNREGISTERED</text><text fill="#eeeeee" stroke="none" font-family="Arial" font-size="24px" font-style="normal" font-weight="normal" text-decoration="none" x="600" y="90">UNREGISTERED</text><text fill="#eeeeee" stroke="none" font-family="Arial" font-size="24px" font-style="normal" font-weight="normal" text-decoration="none" x="600" y="120">UNREGISTERED</text><text fill="#eeeeee" stroke="none" font-family="Arial" font-size="24px" font-style="normal" font-weight="normal" text-decoration="none" x="600" y="150">UNREGISTERED</text><text fill="#eeeeee" stroke="none" font-family="Arial" font-size="24px" font-style="normal" font-weight="normal" text-decoration="none" x="600" y="180">UNREGISTERED</text><text fill="#eeeeee" stroke="none" font-family="Arial" font-size="24px" font-style="normal" font-weight="normal" text-decoration="none" x="600" y="210">UNREGISTERED</text><text fill="#eeeeee" stroke="none" font-family="Arial" font-size="24px" font-style="normal" font-weight="normal" text-decoration="none" x="600" y="240">UNREGISTERED</text><text fill="#eeeeee" stroke="none" font-family="Arial" font-size="24px" font-style="normal" font-weight="normal" text-decoration="none" x="800" y="0">UNREGISTERED</text><text fill="#eeeeee" stroke="none" font-family="Arial" font-size="24px" font-style="normal" font-weight="normal" text-decoration="none" x="800" y="30">UNREGISTERED</text><text fill="#eeeeee" stroke="none" font-family="Arial" font-size="24px" font-style="normal" font-weight="normal" text-decoration="none" x="800" y="60">UNREGISTERED</text><text fill="#eeeeee" stroke="none" font-family="Arial" font-size="24px" font-style="normal" font-weight="normal" text-decoration="none" x="800" y="90">UNREGISTERED</text><text fill="#eeeeee" stroke="none" font-family="Arial" font-size="24px" font-style="normal" font-weight="normal" text-decoration="none" x="800" y="120">UNREGISTERED</text><text fill="#eeeeee" stroke="none" font-family="Arial" font-size="24px" font-style="normal" font-weight="normal" text-decoration="none" x="800" y="150">UNREGISTERED</text><text fill="#eeeeee" stroke="none" font-family="Arial" font-size="24px" font-style="normal" font-weight="normal" text-decoration="none" x="800" y="180">UNREGISTERED</text><text fill="#eeeeee" stroke="none" font-family="Arial" font-size="24px" font-style="normal" font-weight="normal" text-decoration="none" x="800" y="210">UNREGISTERED</text><text fill="#eeeeee" stroke="none" font-family="Arial" font-size="24px" font-style="normal" font-weight="normal" text-decoration="none" x="800" y="240">UNREGISTERED</text><g transform="translate(-158,-118) scale(1,1)"><path fill="#C0C0C0" stroke="none" d="M 207 259 C 207 247.954304 216.62587680000001 239 228.5 239 C 240.37412319999999 239 250 247.954304 250 259 C 250 270.045696 240.37412319999999 279 228.5 279 C 216.62587680000001 279 207 270.045696 207 259 Z" opacity="0.2"/></g><g transform="translate(-158,-118) scale(1,1)"><path fill="#000000" stroke="none" d="M 200 252 C 200 240.954304 209.62587680000001 232 221.5 232 C 233.37412319999999 232 243 240.954304 243 252 C 243 263.045696 233.37412319999999 272 221.5 272 C 209.62587680000001 272 200 263.045696 200 252 Z"/></g><g transform="translate(-158,-118) scale(1,1)"><path fill="#C0C0C0" stroke="none" d="M 809 231 L 949 231 Q 959 231 959 241 L 959 269 Q 959 279 949 279 L 809 279 Q 799 279 799 269 L 799 241 Q 799 231 809 231 Z" opacity="0.2"/></g><g transform="translate(-158,-118) scale(1,1)"><path fill="#ffffff" stroke="none" d="M 802 224 L 942 224 Q 952 224 952 234 L 952 262 Q 952 272 942 272 L 802 272 Q 792 272 792 262 L 792 234 Q 792 224 802 224 Z"/></g><g transform="translate(-158,-118) scale(1,1)"><path fill="none" stroke="#000000" d="M 802 224 L 942 224 Q 952 224 952 234 L 952 262 Q 952 272 942 272 L 802 272 Q 792 272 792 262 L 792 234 Q 792 224 802 224 Z" stroke-miterlimit="10"/></g><g transform="translate(-158,-118) scale(1,1)"><g><path fill="none" stroke="none"/><text fill="#000000" stroke="none" font-family="Arial" font-size="13px" font-style="normal" font-weight="bold" text-decoration="none" x="849.234130859375" y="242">Pessoa</text></g></g><g transform="translate(-158,-118) scale(1,1)"><path fill="#C0C0C0" stroke="none" d="M 537 159 L 677 159 Q 687 159 687 169 L 687 197 Q 687 207 677 207 L 537 207 Q 527 207 527 197 L 527 169 Q 527 159 537 159 Z" opacity="0.2"/></g><g transform="translate(-158,-118) scale(1,1)"><path fill="#ffffff" stroke="none" d="M 530 152 L 670 152 Q 680 152 680 162 L 680 190 Q 680 200 670 200 L 530 200 Q 520 200 520 190 L 520 162 Q 520 152 530 152 Z"/></g><g transform="translate(-158,-118) scale(1,1)"><path fill="none" stroke="#000000" d="M 530 152 L 670 152 Q 680 152 680 162 L 680 190 Q 680 200 670 200 L 530 200 Q 520 200 520 190 L 520 162 Q 520 152 530 152 Z" stroke-miterlimit="10"/></g><g transform="translate(-158,-118) scale(1,1)"><g><path fill="none" stroke="none"/><text fill="#000000" stroke="none" font-family="Arial" font-size="13px" font-style="normal" font-weight="bold" text-decoration="none" x="557.0009765625" y="170">Pessoa Física</text></g></g><g transform="translate(-158,-118) scale(1,1)"><path fill="#C0C0C0" stroke="none" d="M 537 311 L 677 311 Q 687 311 687 321 L 687 349 Q 687 359 677 359 L 537 359 Q 527 359 527 349 L 527 321 Q 527 311 537 311 Z" opacity="0.2"/></g><g transform="translate(-158,-118) scale(1,1)"><path fill="#ffffff" stroke="none" d="M 530 304 L 670 304 Q 680 304 680 314 L 680 342 Q 680 352 670 352 L 530 352 Q 520 352 520 342 L 520 314 Q 520 304 530 304 Z"/></g><g transform="translate(-158,-118) scale(1,1)"><path fill="none" stroke="#000000" d="M 530 304 L 670 304 Q 680 304 680 314 L 680 342 Q 680 352 670 352 L 530 352 Q 520 352 520 342 L 520 314 Q 520 304 530 304 Z" stroke-miterlimit="10"/></g><g transform="translate(-158,-118) scale(1,1)"><g><path fill="none" stroke="none"/><text fill="#000000" stroke="none" font-family="Arial" font-size="13px" font-style="normal" font-weight="bold" text-decoration="none" x="550.5009765625" y="322">Pessoa Jurídica</text></g></g><g transform="translate(-158,-118) scale(1,1)"><path fill="#C0C0C0" stroke="none" d="M 1071 255 C 1071 241.7451648 1081.7451648 231 1095 231 C 1108.2548352 231 1119 241.7451648 1119 255 C 1119 268.2548352 1108.2548352 279 1095 279 C 1081.7451648 279 1071 268.2548352 1071 255 Z" opacity="0.2"/></g><g transform="translate(-158,-118) scale(1,1)"><path fill="none" stroke="#000000" d="M 1064 248 C 1064 234.7451648 1074.7451648 224 1088 224 C 1101.2548352 224 1112 234.7451648 1112 248 C 1112 261.2548352 1101.2548352 272 1088 272 C 1074.7451648 272 1064 261.2548352 1064 248 Z" stroke-miterlimit="10"/></g><g transform="translate(-158,-118) scale(1,1)"><path fill="#000000" stroke="none" d="M 1069 248 C 1069 237.5065888 1077.5065888 229 1088 229 C 1098.4934112 229 1107 237.5065888 1107 248 C 1107 258.4934112 1098.4934112 267 1088 267 C 1077.5065888 267 1069 258.4934112 1069 248 Z"/></g><g transform="translate(-158,-118) scale(1,1)"><path fill="#C0C0C0" stroke="none" d="M 351 259.5 L 375.5 239 L 399 259.5 L 375.5 279 L 351 259.5" opacity="0.2"/></g><g transform="translate(-158,-118) scale(1,1)"><path fill="#ffffff" stroke="none" d="M 344 252 L 368 232 L 392 252 L 368 272 L 344 252"/></g><g transform="translate(-158,-118) scale(1,1)"><path fill="none" stroke="#000000" d="M 344 252 L 368 232 L 392 252 L 368 272 L 344 252 L 344 252" stroke-miterlimit="10"/></g><g transform="translate(-158,-118) scale(1,1)"><path fill="#ffffff" stroke="none" d="M 168 128 L 264 128 L 274 138 L 274 176 L 168 176 L 168 128"/></g><g transform="translate(-158,-118) scale(1,1)"><path fill="none" stroke="#000000" d="M 168 128 L 264 128 L 274 138 L 274 176 L 168 176 L 168 128 L 168 128" stroke-miterlimit="10"/></g><g transform="translate(-158,-118) scale(1,1)"><path fill="none" stroke="#000000" d="M 264 128 L 264 138 L 274 138 L 264 128" stroke-miterlimit="10"/></g><g transform="translate(-158,-118) scale(1,1)"><g><path fill="none" stroke="none"/><text fill="#000000" stroke="none" font-family="Arial" font-size="13px" font-style="normal" font-weight="normal" text-decoration="none" x="173" y="143">Estado inicial</text></g></g><g transform="translate(-158,-118) scale(1,1)"><path fill="none" stroke="#000000" d="M 221 231 L 221 178" stroke-miterlimit="10" stroke-dasharray="3"/></g><g transform="translate(-158,-118) scale(1,1)"><path fill="none" stroke="#000000" d="M 244 252 L 343 252" stroke-miterlimit="10"/></g><g transform="translate(-158,-118) scale(1,1)"><path fill="none" stroke="#000000" d="M 332.83732514237585 256.209517756016 L 343 252 L 332.83732514237585 247.790482243984" stroke-miterlimit="10"/></g><g transform="translate(-158,-118) scale(1,1)"><path fill="none" stroke="#000000" d="M 368 273 L 368 328 L 519 328" stroke-miterlimit="10"/></g><g transform="translate(-158,-118) scale(1,1)"><path fill="none" stroke="#000000" d="M 508.83732514237585 332.209517756016 L 519 328 L 508.83732514237585 323.790482243984" stroke-miterlimit="10"/></g><g transform="translate(-158,-118) scale(1,1)"><g><path fill="none" stroke="none"/><text fill="#000000" stroke="none" font-family="Arial" font-size="13px" font-style="normal" font-weight="normal" text-decoration="none" x="288.5" y="346"> [Se pessoa jurítica - CNPJ]</text></g></g><g transform="translate(-158,-118) scale(1,1)"><path fill="none" stroke="#000000" d="M 368 231 L 368 176 L 519 176" stroke-miterlimit="10"/></g><g transform="translate(-158,-118) scale(1,1)"><path fill="none" stroke="#000000" d="M 508.83732514237585 180.209517756016 L 519 176 L 508.83732514237585 171.790482243984" stroke-miterlimit="10"/></g><g transform="translate(-158,-118) scale(1,1)"><g><path fill="none" stroke="none"/><text fill="#000000" stroke="none" font-family="Arial" font-size="13px" font-style="normal" font-weight="normal" text-decoration="none" x="296.5" y="166"> [Se pessoa física - CPF]</text></g></g><g transform="translate(-158,-118) scale(1,1)"><path fill="none" stroke="#000000" d="M 681 328 L 872 327 L 872 273" stroke-miterlimit="10"/></g><g transform="translate(-158,-118) scale(1,1)"><path fill="none" stroke="#000000" d="M 876.209517756016 283.16267485762415 L 872 273 L 867.790482243984 283.16267485762415" stroke-miterlimit="10"/></g><g transform="translate(-158,-118) scale(1,1)"><path fill="none" stroke="#000000" d="M 681 176 L 872 176 L 872 223" stroke-miterlimit="10"/></g><g transform="translate(-158,-118) scale(1,1)"><path fill="none" stroke="#000000" d="M 867.790482243984 212.83732514237585 L 872 223 L 876.209517756016 212.83732514237585" stroke-miterlimit="10"/></g><g transform="translate(-158,-118) scale(1,1)"><path fill="none" stroke="#000000" d="M 953 248 L 1063 248" stroke-miterlimit="10"/></g><g transform="translate(-158,-118) scale(1,1)"><path fill="none" stroke="#000000" d="M 1052.837325142376 252.209517756016 L 1063 248 L 1052.837325142376 243.790482243984" stroke-miterlimit="10"/></g><g transform="translate(-158,-118) scale(1,1)"><path fill="#ffffff" stroke="none" d="M 1032 128 L 1133 128 L 1143 138 L 1143 174 L 1032 174 L 1032 128"/></g><g transform="translate(-158,-118) scale(1,1)"><path fill="none" stroke="#000000" d="M 1032 128 L 1133 128 L 1143 138 L 1143 174 L 1032 174 L 1032 128 L 1032 128" stroke-miterlimit="10"/></g><g transform="translate(-158,-118) scale(1,1)"><path fill="none" stroke="#000000" d="M 1133 128 L 1133 138 L 1143 138 L 1133 128" stroke-miterlimit="10"/></g><g transform="translate(-158,-118) scale(1,1)"><g><path fill="none" stroke="none"/><text fill="#000000" stroke="none" font-family="Arial" font-size="13px" font-style="normal" font-weight="normal" text-decoration="none" x="1037" y="143">Estado final</text></g></g><g transform="translate(-158,-118) scale(1,1)"><path fill="none" stroke="#000000" d="M 1088 223 L 1088 176" stroke-miterlimit="10" stroke-dasharray="3"/></g></g></svg>